<svg xmlns="http://www.w3.org/2000/svg" width="360" height="72" viewBox="0 0 360 72" fill="none">
    <mask id="a" maskUnits="userSpaceOnUse" x="0" y="0" width="360" height="72">
        <path d="M360 0H0v60c0 6.627 5.373 12 12 12h336c6.627 0 12-5.373 12-12V0z" fill="#fff"/>
    </mask>
    <g mask="#fff">
        <path d="M360 0H0v72h360V0z" fill="#fff"/>
        <path d="M360 0H0v72h360V0z" fill="#fff"/>
        <path opacity=".32" d="M253.218 224.998c6.864-.413 13.725-1.02 20.572-1.594 47.327-3.975 56.211 34.646 82.886 26.442 17.679-5.439 25.044-37.567 41.607-24.196 36.787 29.69 63.596-.228 65.706-31.998 1.064-16.2-3.417-25.108-7.686-46.374-6.412-32.614 33.915-32.737 60.191-58.671 24.909-24.57 18.251-56.389-6.66-67.555-38.949-17.423-68.313 22.933-102.821 4.212-61.686-33.467-61.413-1.911-97.112 25.882-31.018 24.129-58.962 9.582-90.933 17.836-26.322 5.218-44.135 19.23-54.71 42.349-27.124 59.249 25.111 117.496 88.96 113.667zM-35.059 48.248c-38.987 26.072-41.466-15.874-81.407 5.463-39.942 21.337-56.308-43.73-19.845-47.975 36.464-4.244 40.876-26.232 39.179-47.046-1.698-20.815 21.776-40.041 49.746-30.14 27.97 9.9 42.209 10.99 62.988-31.554 20.78-42.544 52.115-40.719 65.957-33.02 13.842 7.699 31.23 29.398-13.812 53.05-45.041 23.652-9.883 52.584 2.638 59.395 12.521 6.81 8.457 34.276-29.886 34.357-38.344.082-26.824 4.88-75.558 37.47z" fill="#17EAD9"/>
        <path d="M450.339 146.875v.001c1.787 6.876 3.535 12.537 5.083 17.553.958 3.104 1.84 5.961 2.607 8.705 2.015 7.205 3.284 13.761 3.203 22.32-.173 16.798-6.881 33.409-18.522 42.183-5.811 4.38-12.859 6.816-20.97 6.355-8.119-.461-17.338-3.824-27.475-11.106-2.34-1.682-4.512-2.625-6.562-2.946-2.056-.322-3.96-.012-5.75.766-3.551 1.542-6.651 4.928-9.686 8.841-1.123 1.448-2.236 2.966-3.364 4.504-1.954 2.667-3.952 5.393-6.123 7.917-3.409 3.963-7.164 7.323-11.651 8.984-12.519 4.633-21.674-1.192-32.956-8.368a574.211 574.211 0 0 0-3.025-1.917c-12.687-7.964-28.224-16.382-53.366-12.842l-3.12.44c-6.19.874-12.381 1.748-18.584 2.472-33.575 3.91-64.993-8.728-84.875-30.342-19.873-21.605-28.221-52.174-15.681-84.196l-.465-.183.465.183c9.776-24.987 27.697-40.793 55.144-47.853l.013-.004.013-.003c12.328-3.932 24.228-4.52 36.001-5.1 4.11-.203 8.204-.405 12.296-.749 15.788-1.324 31.391-4.761 47.226-18.571h0c8.828-7.706 15.382-15.52 21.194-22.451l.5-.596c5.95-7.092 11.133-13.18 17.267-17.3 6.106-4.101 13.17-6.259 22.899-5.423 9.754.837 22.192 4.684 39.018 12.626 19.016 8.976 35.784 2.254 52.888-4.602l.155-.062c17.202-6.896 34.792-13.903 55.752-5.904 13.381 5.118 22.266 15.904 24.736 28.799 2.47 12.894-1.463 27.957-13.847 41.623h0c-6.537 7.218-14.102 12.797-21.656 17.644-3.569 2.29-7.131 4.414-10.582 6.471l-.603.359c-3.635 2.168-7.139 4.268-10.372 6.411-6.458 4.28-11.885 8.763-15.135 14.366-3.264 5.628-4.303 12.337-2.09 20.995z" stroke="#3CB0E2"/>
        <path opacity=".8" d="M19.142-80.054h0c-1.65-4.431-3.192-8.061-4.557-11.278-.846-1.99-1.624-3.821-2.318-5.586-1.824-4.633-3.108-8.887-3.631-14.558-1.018-11.131 2.314-22.577 9.45-29.167 3.56-3.29 8.075-5.376 13.49-5.617 5.42-.241 11.766 1.365 18.986 5.504 1.667.956 3.172 1.434 4.554 1.509 1.387.074 2.63-.259 3.765-.894 2.253-1.259 4.083-3.709 5.833-6.503a138.047 138.047 0 0 0 1.93-3.208c1.117-1.897 2.259-3.835 3.53-5.652 1.995-2.853 4.261-5.329 7.127-6.73 7.998-3.909 14.468-.669 22.44 3.322.701.351 1.412.708 2.137 1.066 8.958 4.418 19.84 8.945 36.289 4.911.681-.166 1.361-.334 2.042-.501 4.049-.995 8.1-1.99 12.168-2.886 22.022-4.846 43.729 1.406 58.384 14.376 14.648 12.964 22.251 32.636 16.087 54.675l.321.09-.321-.09c-4.804 17.196-15.634 28.864-33.376 35.383l-.008.003-.009.003c-7.918 3.432-15.777 4.62-23.552 5.797-2.715.41-5.419.82-8.112 1.322-10.39 1.939-20.515 5.263-30.094 15.47h0c-5.341 5.693-9.164 11.306-12.554 16.285l-.292.428C115.38-7.485 112.35-3.107 108.557.032c-3.777 3.125-8.32 5.028-14.835 5.13-6.53.101-15.045-1.608-26.75-5.734-13.228-4.662-23.905.915-34.795 6.603l-.099.052C21.125 11.804 9.922 17.625-4.53 13.74c-9.227-2.488-15.852-9.03-18.361-17.399-2.51-8.369-.915-18.603 6.384-28.482h0c3.852-5.217 8.497-9.419 13.184-13.135 2.215-1.756 4.436-3.4 6.588-4.995l.376-.278c2.267-1.68 4.451-3.305 6.453-4.94 3.997-3.268 7.297-6.6 9.077-10.528 1.786-3.945 2.024-8.455-.029-14.037z" stroke="#17EAD9"/>
        <path d="M306.349 164.529l-.001-.002c-3.723-6.05-7.054-10.951-10.004-15.292-1.826-2.688-3.507-5.16-5.044-7.559-4.039-6.298-7.173-12.194-9.603-20.401-4.759-16.111-3.214-33.96 5.345-45.76 4.272-5.89 10.297-10.284 18.187-12.221 7.896-1.94 17.697-1.426 29.522 2.566 2.731.922 5.084 1.187 7.138.893 2.06-.295 3.789-1.149 5.273-2.417 2.943-2.515 4.915-6.66 6.67-11.292a209.73 209.73 0 0 0 1.895-5.292c1.087-3.122 2.199-6.315 3.535-9.364 2.098-4.788 4.703-9.1 8.507-12.004 10.611-8.099 21.072-5.213 33.961-1.658 1.132.313 2.282.63 3.453.946 14.464 3.897 31.786 7.39 54.786-3.362l2.855-1.336c5.662-2.65 11.325-5.3 17.043-7.81C510.821-.414 544.565 2.461 569.908 17.3c25.332 14.832 42.273 41.612 39.668 75.903l.499.038-.499-.038c-2.023 26.755-14.525 47.119-38.697 61.913l-.012.007-.012.008c-10.633 7.372-21.839 11.421-32.925 15.427-3.87 1.398-7.725 2.792-11.537 4.319-14.705 5.894-28.617 13.753-39.709 31.598-6.182 9.954-10.157 19.345-13.683 27.676l-.303.716c-3.61 8.525-6.782 15.865-11.439 21.601-4.636 5.71-10.757 9.844-20.304 11.896-9.57 2.058-22.589 2.026-41.005-.636-20.811-3.009-34.873 8.332-49.217 19.901l-.129.104c-14.427 11.635-29.19 23.489-51.575 21.985-14.293-.972-25.948-8.68-32.09-20.285-6.14-11.604-6.794-27.158 1.041-43.854 4.134-8.817 9.731-16.368 15.533-23.216 2.742-3.236 5.525-6.31 8.221-9.289l.471-.52c2.84-3.137 5.576-6.173 8.038-9.169 4.92-5.984 8.795-11.861 10.26-18.17 1.471-6.339.498-13.056-4.154-20.685z" stroke="#3CB0E2"/>
    </g>
    <defs>
        <linearGradient id="paint0_linear" x1="0" y1="0" x2="348.47" y2="108.897" gradientUnits="userSpaceOnUse">
            <stop stop-color="#ACEBE6" stop-opacity=".4"/>
            <stop offset="1" stop-color="#ACEBE6"/>
        </linearGradient>
    </defs>
</svg>