<svg width="75" height="75" viewBox="0 0 75 75" fill="none" xmlns="http://www.w3.org/2000/svg">
<path d="M13.0799 33.9453C13.0799 33.2842 13.8354 32.749 15.3464 32.3398C16.8575 31.9306 18.4944 31.7259 20.2573 31.7259C22.0202 31.7259 23.3581 32.4342 24.271 33.8508C25.2154 35.2674 25.6876 36.8414 25.6876 38.5728C25.6876 40.3042 24.9478 43.2948 23.4682 47.5446C22.0202 51.7629 20.761 53.872 19.6906 53.872C19.2499 53.872 18.8722 53.7304 18.5574 53.447C18.2741 53.1952 18.1324 52.8647 18.1324 52.4554C18.1324 50.1889 18.762 46.9465 20.0212 42.7282C18.5416 44.6169 16.9204 46.1437 15.1575 47.3085C13.4262 48.4732 11.6318 49.0556 9.7745 49.0556C7.94866 49.0556 6.02839 48.2529 4.01368 46.6474C1.99897 45.0419 0.991615 43.2791 0.991615 41.3588C0.991615 37.959 1.99897 34.1971 4.01368 30.0733C6.02839 25.9179 8.57826 22.3764 11.6633 19.4488C14.7483 16.5212 17.6602 15.0574 20.3989 15.0574C21.3433 15.0574 22.3192 15.7971 23.3266 17.2767C24.3654 18.7562 24.8848 20.1099 24.8848 21.3376C24.8848 21.9042 24.6802 22.1875 24.271 22.1875C24.208 22.1875 23.9089 22.1246 23.3738 21.9987C22.8386 21.8728 22.1776 21.8098 21.3906 21.8098C19.2814 21.8098 17.125 22.8958 14.9215 25.068C12.7179 27.2086 10.9235 29.8529 9.5384 33.0009C8.15328 36.1489 7.46073 39.108 7.46073 41.8782C7.46073 42.6967 7.99588 43.1059 9.0662 43.1059C10.5458 43.1059 12.3558 42.4448 14.4965 41.1227C16.6686 39.8005 18.337 38.321 19.5018 36.684C18.8092 36.7155 17.9593 36.7312 16.9519 36.7312C15.976 36.7312 15.0789 36.4322 14.2604 35.8341C13.4734 35.2359 13.0799 34.6064 13.0799 33.9453Z" fill="url(#paint0_linear_238_5750)"/>
<path d="M32.4659 47.2443C33.3825 46.837 34.1803 46.0137 34.8593 44.7746C35.5383 43.5354 35.8778 42.3727 35.8778 41.2863C35.8778 40.2 35.725 39.4531 35.4194 39.0457C34.6895 39.4701 33.9596 40.3612 33.2297 41.7192C32.5168 43.0771 32.1604 44.2738 32.1604 45.3093C32.1604 46.3277 32.2622 46.9728 32.4659 47.2443ZM28.7485 45.5639C28.7485 43.4421 29.402 41.4306 30.709 39.5295C32.033 37.6283 33.3401 36.6778 34.6301 36.6778C35.9202 36.6778 37.0066 37.1361 37.8892 38.0527C38.7719 38.9523 39.2132 40.0472 39.2132 41.3372C39.2132 42.6103 38.9077 43.9089 38.2966 45.2329C37.6855 46.5569 36.8283 47.6602 35.725 48.5429C34.6216 49.4086 33.4419 49.8414 32.1858 49.8414C31.2522 49.8414 30.4459 49.4256 29.767 48.5938C29.088 47.7621 28.7485 46.7521 28.7485 45.5639ZM40.7423 41.0062L40.5895 38.1291C40.5895 37.1785 40.8866 36.7032 41.4807 36.7032C41.8202 36.7032 42.1512 36.8305 42.4737 37.0851C42.8132 37.3398 43.0678 37.7387 43.2376 38.2818C43.8147 37.7726 44.4427 37.3652 45.1217 37.0597C45.8177 36.7372 46.4288 36.5759 46.955 36.5759C48.1941 36.5759 48.8137 36.873 48.8137 37.4671C48.8137 37.7726 48.7542 38.0018 48.6354 38.1545C48.5336 38.2903 48.4487 38.3922 48.3808 38.4601C48.3299 38.528 48.228 38.6213 48.0753 38.7402C47.9395 38.842 47.8376 38.9184 47.7697 38.9693C47.3793 39.2239 47.0992 39.4022 46.9295 39.504C46.1656 39.9793 45.5121 40.5564 44.9689 41.2354C44.4258 41.8974 44.0184 42.8225 43.7468 44.0107C43.2885 45.9628 42.8387 47.4226 42.3973 48.3901C41.973 49.3407 41.4892 49.816 40.946 49.816C40.4198 49.816 40.0209 49.5614 39.7493 49.0521C39.4947 48.5429 39.3674 48.0676 39.3674 47.6263C39.3674 47.168 39.5286 46.489 39.8512 45.5893C40.1906 44.6897 40.4198 43.9174 40.5386 43.2723C40.6744 42.6103 40.7423 41.855 40.7423 41.0062ZM49.8144 49.816H49.7635C49.3901 49.816 48.9233 49.4765 48.3631 48.7975C47.803 48.1016 47.5229 47.499 47.5229 46.9897C47.5229 46.4635 48.0151 44.138 48.9996 40.0132C50.0011 35.8885 50.5019 33.2829 50.5019 32.1965C50.5019 31.5175 50.748 31.178 51.2403 31.178C51.6477 31.178 52.1399 31.5854 52.717 32.4002C53.2942 33.198 53.5827 33.9619 53.5827 34.6918C53.5827 35.1331 53.3621 36.2619 52.9207 38.0782C54.3126 36.2279 55.6197 34.6833 56.8418 33.4441C58.064 32.188 58.8957 31.56 59.3371 31.56C59.7954 31.56 60.2537 31.7552 60.712 32.1456C61.1703 32.519 61.3995 32.85 61.3995 33.1386C61.3995 33.4102 60.9666 33.9534 60.1009 34.7681C59.2352 35.5829 58.1658 36.6184 56.8928 37.8745C55.6197 39.1306 54.6352 40.3018 53.9392 41.3882C53.9392 42.6952 54.6946 44.0107 56.2053 45.3347C56.6636 45.7251 57.2747 46.1325 58.0385 46.5569C58.8024 46.9643 59.3965 47.3207 59.8208 47.6263C60.2622 47.9148 60.4829 48.2119 60.4829 48.5174C60.4829 49.3831 59.8718 49.816 58.6496 49.816C57.4275 49.816 56.1119 49.3237 54.7031 48.3392C53.2942 47.3377 52.2418 46.0137 51.5458 44.3672C51.1045 45.6233 50.8329 46.5399 50.731 47.117C50.6292 47.6772 50.5528 48.0506 50.5019 48.2373C50.4679 48.4241 50.434 48.5768 50.4 48.6957C50.3661 48.7975 50.3321 48.9163 50.2982 49.0521C50.2642 49.1879 50.2303 49.2983 50.1963 49.3831C50.1624 49.451 50.1284 49.5189 50.0945 49.5868C49.9927 49.7396 49.8993 49.816 49.8144 49.816ZM70.5291 37.3398C70.6649 36.9154 70.9364 36.7032 71.3438 36.7032C71.7512 36.7032 72.218 37.0512 72.7442 37.7472C73.2874 38.4431 73.559 39.0457 73.559 39.5549C73.559 39.7416 73.1686 40.9893 72.3878 43.2978C71.6069 45.6063 71.0043 47.4311 70.58 48.772C70.3423 49.485 69.9434 49.8414 69.3833 49.8414C69.0438 49.8414 68.7552 49.7226 68.5176 49.485C68.2969 49.2304 68.1866 48.8399 68.1866 48.3137C68.1866 47.7875 68.2884 47.0407 68.4921 46.0731C66.7438 48.5853 65.3519 49.8414 64.3164 49.8414C63.7732 49.8414 63.1197 49.4935 62.3559 48.7975C61.592 48.0846 61.2101 47.3971 61.2101 46.7351C61.2101 45.1056 61.6684 43.0262 62.585 40.497C63.5186 37.9678 64.3928 36.7032 65.2076 36.7032C65.6998 36.7032 66.1327 36.9239 66.5061 37.3652C66.8965 37.8066 67.0917 38.2903 67.0917 38.8165C67.0917 39.0202 66.8796 39.5889 66.4552 40.5225C65.1651 43.3233 64.5201 45.3008 64.5201 46.455C64.5201 46.5569 64.5625 46.6078 64.6474 46.6078C64.902 46.6078 65.3773 46.2089 66.0733 45.4111C66.7862 44.5963 67.5755 43.4421 68.4412 41.9483C69.3239 40.4376 70.0198 38.9014 70.5291 37.3398Z" fill="#5B5B5B"/>
<defs>
<linearGradient id="paint0_linear_238_5750" x1="1.47638e-07" y1="7.7381" x2="28.3558" y2="57.8053" gradientUnits="userSpaceOnUse">
<stop stop-color="#17EAD9"/>
<stop offset="1" stop-color="#6078EA"/>
</linearGradient>
</defs>
</svg>
