<svg xmlns="http://www.w3.org/2000/svg" viewBox="0 0 500 500"><g id="freepik--Trees--inject-152"><g id="freepik--Pine--inject-152"><path d="M456.53,231c-5.7,4.21-31.81,3.62-37.69,0a28.79,28.79,0,0,1-.12-7.21l8.91,4.09-8.52-8.44c.51-4.74,1.34-10.49,2.4-16.72l3.26,1.74-3-3.42c.61-3.51,1.29-7.17,2-10.86l5.3,4.26-4.74-7.09c.16-.77.31-1.54.47-2.3l7.25,6L426,179.81c1.14-5.17,2.33-10.26,3.53-15l4.73,3.6c-.11-.2-2-3.42-3.9-6.77,1.56-5.93,3.13-11.19,4.59-15.24a2.94,2.94,0,0,1,5.52,0c1.4,3.86,2.89,8.8,4.37,14.38h0l-2.88,6.34,3.44-4.22c.93,3.58,1.86,7.37,2.75,11.26l-6.19,13.65,7.32-8.66c.11.53.24,1.07.34,1.61l-3,7.05,3.47-4.8c1.26,6,2.42,11.93,3.41,17.59L444.9,211l9.3-6.2c.21,1.3.42,2.58.61,3.83l-4.36,4.82,4.88-1.4C456.62,221.09,457.17,228.18,456.53,231Z" style="fill:#e0e0e0"></path><path d="M456.53,231c-5.7,4.21-31.81,3.62-37.69,0a28.79,28.79,0,0,1-.12-7.21l8.91,4.09-8.52-8.44c.51-4.74,1.34-10.49,2.4-16.72l3.26,1.74-3-3.42c.61-3.51,1.29-7.17,2-10.86l5.3,4.26-4.74-7.09c.16-.77.31-1.54.47-2.3l7.25,6L426,179.81c1.14-5.17,2.33-10.26,3.53-15l4.73,3.6c-.11-.2-2-3.42-3.9-6.77,1.56-5.93,3.13-11.19,4.59-15.24a2.94,2.94,0,0,1,5.52,0c1.4,3.86,2.89,8.8,4.37,14.38h0l-2.88,6.34,3.44-4.22c.93,3.58,1.86,7.37,2.75,11.26l-6.19,13.65,7.32-8.66c.11.53.24,1.07.34,1.61l-3,7.05,3.47-4.8c1.26,6,2.42,11.93,3.41,17.59L444.9,211l9.3-6.2c.21,1.3.42,2.58.61,3.83l-4.36,4.82,4.88-1.4C456.62,221.09,457.17,228.18,456.53,231Z" style="opacity:0.15"></path><path d="M439.07,206.74l7.95-15-8.09,9.91-1.25-46.44-1,28.26-5.66-8.18,5.49,13.29-1,28.62-10.78-9.95,10.64,14.11-.9,81.5c0,1.67,5.65,1.67,5.65,0l-1.09-96.15Z" style="fill:#e0e0e0"></path></g><g id="freepik--pine--inject-152"><path d="M483.3,256.39c-6,3.68-32.44,4.26-38.21,0-.53-2.31-.26-7.5.57-14.3l7.49,3.2-6.91-7.68c.67-4.66,1.52-9.87,2.51-15.3l4.59,2-4.29-3.64q.36-1.89.72-3.81l7.67,4.42-6.89-8.35c.86-4.23,1.77-8.48,2.72-12.64l4,2.13L454,196.86c1-4.05,2.86-11.3,3.85-14.86l4,3.19-3.41-5.39c1-3.47,2-6.57,2.94-9.19a3,3,0,0,1,5.59,0c1.44,4,3,9.12,4.52,14.91h0l-3.13,7.1,4.16-3.15c1.08,4.27,2.15,8.8,3.18,13.42h0l-5.24,13.22,6.28-8.41q.56,2.66,1.1,5.3l-3.74,7.34,4.28-4.6c1,5.24,2,10.37,2.73,15.15h0l-8.55,13.43,9.26-8.84c.22,1.44.41,2.84.6,4.18L476,247.61l7-3.72C483.61,249.81,483.79,254.29,483.3,256.39Z" style="fill:#e0e0e0"></path><path d="M474.93,224.42l-8.67,12.28-.92-26.49L470,194.36l-4.85,10.82-1-28.39-1.1,41-4.87-5.82L463,223.13l-.62,23.25-10.07-10,9.89,16.82-.67,49.7c0,1.83,6.2,1.83,6.2,0l-1.15-58.28Z" style="fill:#f0f0f0"></path></g><g id="freepik--pine--inject-152"><path d="M15.72,263c5.67,4.18,31.69,3.6,37.55,0,.41-1.77.34-5.23-.1-9.82l-6.75,2.44,6.28-6.75c-.72-5.9-1.85-13-3.24-20.57l-3.82,1.59L49,225.69c-.14-.74-.29-1.48-.43-2.22l-9.08,4.62,7.85-10.7c-1.22-5.87-2.53-11.76-3.89-17.27l-5.9,4.93L42.62,197c-.37-1.48-.75-2.92-1.12-4.31l-5.22,2.83,4.27-6.27c-1.13-4-2.25-7.59-3.31-10.52a2.92,2.92,0,0,0-5.49,0c-1.59,4.4-3.31,10.23-5,16.79,1.48,3.45,2.66,6.14,2.66,6.14l-3.77-1.74Q25,202.4,24.41,205c1.78,5.46,4,12.32,4,12.46l-4.87-8.71C18.43,231.52,14.35,257,15.72,263Z" style="fill:#e0e0e0"></path><path d="M33.11,238.85l-7.92-14.91,8.06,9.87,1.24-46.28,1,28.17,5.64-8.15-5.47,13.23,1,28.52,10.74-9.91-10.6,14.06.9,49.44c0,1.66-5.64,1.66-5.64,0l1.09-64Z" style="fill:#f0f0f0"></path></g><g id="freepik--pine--inject-152"><path d="M47.64,236c6,3.67,32.47,4.26,38.25,0a20.34,20.34,0,0,0,.24-4.82L80,234l5.74-8.81c-.37-3.65-.94-7.94-1.67-12.61l-6,3.14L83.29,208q-.18-1.11-.39-2.25l-9.74,5.64,8.5-12.55c-1.31-6.92-2.83-14.13-4.42-21l-5.64,4.24,4.5-9.09c-.22-.88-.43-1.74-.64-2.59l-5.57,4.43,4.26-9.49c-1.55-5.91-3.12-11.15-4.58-15.2a3,3,0,0,0-5.61,0c-1.4,3.88-2.89,8.86-4.4,14.48l1.68,10.21L58,170.62c-1.42,5.7-2.82,11.82-4.1,18l4.22,13.18-5.43-7.21c-1.24,6.21-2.33,12.31-3.2,17.86l2.45,6-3.06-1.86c-.22,1.48-.42,2.91-.58,4.27l5.33,8.86L47.85,225C47.31,230.19,47.19,234.11,47.64,236Z" style="fill:#e0e0e0"></path><path d="M47.64,236c6,3.67,32.47,4.26,38.25,0a20.34,20.34,0,0,0,.24-4.82L80,234l5.74-8.81c-.37-3.65-.94-7.94-1.67-12.61l-6,3.14L83.29,208q-.18-1.11-.39-2.25l-9.74,5.64,8.5-12.55c-1.31-6.92-2.83-14.13-4.42-21l-5.64,4.24,4.5-9.09c-.22-.88-.43-1.74-.64-2.59l-5.57,4.43,4.26-9.49c-1.55-5.91-3.12-11.15-4.58-15.2a3,3,0,0,0-5.61,0c-1.4,3.88-2.89,8.86-4.4,14.48l1.68,10.21L58,170.62c-1.42,5.7-2.82,11.82-4.1,18l4.22,13.18-5.43-7.21c-1.24,6.21-2.33,12.31-3.2,17.86l2.45,6-3.06-1.86c-.22,1.48-.42,2.91-.58,4.27l5.33,8.86L47.85,225C47.31,230.19,47.19,234.11,47.64,236Z" style="opacity:0.15"></path><path d="M68.17,211.43l8.07-15.19L68,206.3l-1.26-47.12-1,28.67L60,179.55,65.6,193l-1,29.05L53.66,212l10.8,14.32-.92,76.59c0,1.69,5.74,1.69,5.74,0l-1.11-91.46Z" style="fill:#e0e0e0"></path></g></g><g id="freepik--Floor--inject-152"><g id="freepik--floor--inject-152"><ellipse cx="249.97" cy="346.16" rx="237.19" ry="136.94" style="fill:#f0f0f0"></ellipse><path d="M82.28,442.91l2,1.12L419.66,250.39c-.65-.38-1.28-.77-1.94-1.15l-2-1.12L80.34,441.76C81,442.14,81.62,442.53,82.28,442.91Z" style="fill:#fafafa"></path><path d="M473.83,300.67,171.35,475.3q2.94.6,5.89,1.14l147.32-85.05L415.73,444l2-1.12,1.94-1.15-91.18-52.64L475.8,304.06C475.17,302.93,474.51,301.8,473.83,300.67Z" style="fill:#fafafa"></path><path d="M175.44,300.76,84.27,248.12l-2,1.12-1.94,1.15L171.52,303,24.2,388.08c.63,1.14,1.29,2.27,2,3.4L328.64,216.85q-2.92-.6-5.88-1.14Z" style="fill:#fafafa"></path></g></g><g id="freepik--Clouds--inject-152"><path id="freepik--Cloud--inject-152" d="M294.21,62.89c0-4.71,5.17-8,11-8.53,6.89-.65,11.78,2.42,11.94,7.84,4.5-1.85,9.25-.66,8.9,4.29,1.17-1.35,5.55-1.31,7.13-.94a6.19,6.19,0,0,1,3.92,3.35,4.61,4.61,0,0,1,.41,2.53c2.62-.86,8.6-1.38,10.09,1,2.66,4.29-8,4.43-10.11,3.13-.45,3.34-11.86,3.88-14.63.81-2.16,2.17-5.26,2.65-8.6,2.85-5.65.34-9.11-1.58-13.52-3.83-4.79,4.06-13.08,4.14-17.39-.51-1.1,1-4.14,1.36-6.57.78-1.59-.38-2-1.06-2-1.06a13.43,13.43,0,0,1-2.93.88c-3.13.66-9,0-6.51-2.85.83-1,3.88-1.57,5.17-1.28,1.37-2.68,6.85-5.23,10-3,.13-3.25,3.1-5.8,7.29-6.44C289.24,61.75,292.61,61.56,294.21,62.89Z" style="fill:#ebebeb"></path><path id="freepik--cloud--inject-152" d="M390.08,89.55c0-4.17,4.57-7.07,9.75-7.56,6.1-.57,10.43,2.15,10.57,7,4-1.64,8.19-.59,7.88,3.8,1-1.2,4.92-1.16,6.31-.83a5.46,5.46,0,0,1,3.47,3,4,4,0,0,1,.37,2.24c2.32-.76,7.61-1.22,8.93.91,2.36,3.8-7.05,3.92-8.95,2.77-.4,2.95-10.5,3.44-13,.71-1.91,1.93-4.66,2.35-7.62,2.53-5,.3-8.07-1.4-12-3.39-4.24,3.6-11.58,3.66-15.4-.45-1,.92-3.66,1.2-5.81.69-1.41-.34-1.74-.94-1.74-.94a12.68,12.68,0,0,1-2.59.78c-2.78.58-7.94,0-5.77-2.53.74-.85,3.43-1.39,4.58-1.13,1.21-2.38,6.06-4.63,8.85-2.62.1-2.88,2.74-5.13,6.45-5.71C385.68,88.54,388.66,88.37,390.08,89.55Z" style="fill:#ebebeb"></path></g><g id="freepik--character-1--inject-152"><g id="freepik--Character--inject-152"><g id="freepik--Bottom--inject-152"><path d="M175,284.24c-2.11,5.53-3.41,8.66-9,21.44-3.8,8.68-19.68,41.73-20.1,43-.56,1.61-5.24,12.86-6.86,16.41-2.37,5.21-11.48,3-10.55-3.5.62-4.35,5.08-17.42,5.69-19.43,0,0,1-3.66,1.47-5.39,1.59-10.57,2-17.1,4.76-31.12a70,70,0,0,1,7.71-21.42c2.48-2.33,1.82-53.54,11.06-76.24,4.5-11.07,37.21,6.78,37.21,6.78s-2.78,9.43-10.74,37C183.31,259.77,179.55,272.28,175,284.24Z" style="fill:#b16668"></path><path d="M131,345.26a25.25,25.25,0,0,0-2.35,4.56c-.77,2.92-1.32,5.93-2.53,7.94-1,1.59-5,9-5.25,15s1.56,10.1,5.77,11.34a10.79,10.79,0,0,0,11.76-3.72,20.35,20.35,0,0,0,2.69-4.83Z" style="fill:#263238"></path><path d="M125.64,360.69c2.71-5,3.13-9.17,5.35-15.43a26.35,26.35,0,0,1,2.55-5.28h0a11.72,11.72,0,0,0,1-2c.42-1,.57-1.39,1.07-1.32-.08.79-.68,2.87-.88,3.81s-.29,2.58-.1,2.28c.37-.58.84-2.6,1.35-2.84,1.31-.64,1.57.89,6,2.36,3.09,1,7.16.12,7.37,1.3.17,1-.83,2.17-1.35,3.65-.21,1-.82,2.59-1,3.42-1,4.73-1.9,6.88-3,13.16-1.09,6.07-2.66,13.06-7.24,17.84s-12.19.71-13.48-3.41S122.65,366.15,125.64,360.69Z" style="fill:#37474f"></path><path d="M134.67,342.73c-.34,2.62.12,3.56-1.33,7.75s-4.83,12.72-4.22,15.29-2.13,2.78-2.57,1.27.06-5.45,1.69-9.38,3.5-8.22,4.29-10.34A39.36,39.36,0,0,1,134.67,342.73Z" style="fill:#263238"></path><path d="M145.12,355.09a53.56,53.56,0,0,1,3-8.34h0c-.06.15-.12.3-.17.45-.21,1-.82,2.59-1,3.42,0,.15-1,4.18-1.54,5.94-.4,1.34-1.19,3.95-1.6,5.54-1.05,4.13-2.17,8.15-3.43,9.09s-3.08-.62-1.29-2.57C140.66,367,143.76,359.32,145.12,355.09Z" style="fill:#263238"></path><path d="M122.64,378.36c-1-3.18-1-8.12,1.33-13.65-.21.83-1.1,4.8.4,6.77,1.68,2.21,3.84,2.16,4.52.46a38.44,38.44,0,0,0,1.23-6.14,10.07,10.07,0,0,1,8.13,2.71c-1.64,2.77-3.52,6-1.86,7,2.67,1.65,5.15-2.72,6.13-5.08-1,4.6-1.91,8.54-5.34,11.26C131.17,386.51,123.93,382.48,122.64,378.36Z" style="fill:#263238"></path><path d="M140.27,369.63a.48.48,0,0,1-.3-.11c-2.75-2.15-7.69-4-11.83-3.43a.5.5,0,0,1-.55-.42.49.49,0,0,1,.42-.55c4.42-.62,9.66,1.36,12.56,3.63a.49.49,0,0,1-.3.88Z" style="fill:#fafafa"></path><path d="M141.15,366a.49.49,0,0,1-.34-.14c-2.21-2.17-7.58-4-11.47-3.26a.49.49,0,0,1-.58-.39.49.49,0,0,1,.39-.57c4.3-.85,9.95,1.17,12.34,3.52a.48.48,0,0,1,0,.69A.49.49,0,0,1,141.15,366Z" style="fill:#fafafa"></path><path d="M142.29,362.59a.5.5,0,0,1-.34-.13c-2.26-2.09-8-4.49-11.72-3.46a.49.49,0,0,1-.6-.34.48.48,0,0,1,.34-.6c4.14-1.14,10.16,1.38,12.65,3.68a.49.49,0,0,1,0,.7A.47.47,0,0,1,142.29,362.59Z" style="fill:#fafafa"></path><path d="M143.24,358.81a.5.5,0,0,1-.26-.08c-3-1.9-8.08-3.74-11.6-3.41a.49.49,0,1,1-.1-1c3.77-.37,9,1.51,12.22,3.56a.49.49,0,0,1-.26.9Z" style="fill:#fafafa"></path><path d="M144.4,355.35a.46.46,0,0,1-.34-.15c-2.41-2.37-8.29-4.1-11.46-3.35a.5.5,0,0,1-.59-.37.5.5,0,0,1,.37-.59c3.49-.82,9.73,1,12.36,3.62a.48.48,0,0,1,0,.69A.49.49,0,0,1,144.4,355.35Z" style="fill:#fafafa"></path><path d="M145.14,352a.48.48,0,0,1-.4-.2c-1.47-2.09-8-4.25-11-3.2a.48.48,0,0,1-.62-.3.49.49,0,0,1,.3-.62c3.52-1.22,10.44,1.15,12.14,3.55a.49.49,0,0,1-.12.68A.51.51,0,0,1,145.14,352Z" style="fill:#fafafa"></path><path d="M208,194.77C214.12,209,223.9,236,226.8,248.26c3.29,13.9,2.84,14.72-1.93,21.05-5,6.62-6,7.59-10.56,12.95-8.2,9.54-19.55,22.75-25.86,30.21-2.43,2.88-7.41,2.68-8.88.18-1.26-2.15,1.12-10.81,1.12-10.81s4.05-10.47,7.72-20c2-5.33,3.26-8.18,6-12,3.57-4.95,6.4-6.33,6.2-7.94-.58-4.69-18-48.83-18-48.83Z" style="fill:#b16668"></path><path d="M173.6,303.31c-.86.49-2.49,1.54-2.71,2.42s-.46,5.69-2.06,10.11c-1.42,3.92-6,10.53-4.55,17.29s3.94,8.23,6.37,9.81a7.26,7.26,0,0,0,6.61,1.05s3.25-1.15,2.87-3.22S173.6,303.31,173.6,303.31Z" style="fill:#263238"></path><path d="M173.23,303.56c.7-1.18,3.39-3.05,5.59-4.21s2.56-2,3.69-2.27l-.29,2.66a5.9,5.9,0,0,0-.12,1.78,8.24,8.24,0,0,1-1.25,3.25,5.16,5.16,0,0,0-.53,3c.9-1.94,1.92-4.19,3.23-3.64.86.37,2,2.22,3.63,3.22s3.24,1.2,3.83,1.74-.17,1.27-1.45,3.14a35.52,35.52,0,0,0-3.87,6.67h0c-.63,2-1.23,4-1.72,6-1.88,7.62-.79,12.39-3,16s-9.16,2.57-12.28-2.77c-5.31-9.09-1.28-14.39.66-18.73a30.93,30.93,0,0,0,2.69-8.78C172.46,307.74,172.25,306.1,173.23,303.56Z" style="fill:#37474f"></path><path d="M179.35,302.76c.93-1.27.45-2.69,1.07-4.4.88-.85,1.6-1.35,2.09-1.28l-.29,2.66a5.9,5.9,0,0,0-.12,1.78,8.24,8.24,0,0,1-1.25,3.25,5.16,5.16,0,0,0-.53,3c-1.32,4.52-4,8.81-4.77,13.4-.78,4.37-.41,5.88-1.57,6.09s-2.26-.76-1.27-5.7,2.66-7.54,4.19-11.11S178,304.58,179.35,302.76Z" style="fill:#263238"></path><path d="M170,330.33c1.81,2.36,3.38,2.64,4.3.26a12.34,12.34,0,0,0,.51-5.32l6.11,2.81s-2.16,4.12-1.34,5.66c.51.95,2,.4,3.13-.61-.28,3.18-.44,5.66-1.7,7.75-2.26,3.76-9.16,2.57-12.28-2.77-4.45-7.61-2.34-12.56-.4-16.53C167.22,324,168.18,328,170,330.33Z" style="fill:#263238"></path><path d="M189.07,312a61.68,61.68,0,0,0-3.38,6.88c-.63,2-1.23,4-1.72,6-.32,1.3-.55,2.51-.73,3.66a3.65,3.65,0,0,1-1.23,1.38c-1.09.37-1.92,0-1.1-1.83s5.29-11.71,8.16-16.06Z" style="fill:#263238"></path><path d="M181.88,329.2a.44.44,0,0,1-.24-.07,31.44,31.44,0,0,0-8.24-3.53.43.43,0,0,1-.32-.52.42.42,0,0,1,.52-.32,31.66,31.66,0,0,1,8.51,3.64.43.43,0,0,1,.13.6A.42.42,0,0,1,181.88,329.2Z" style="fill:#fafafa"></path><path d="M182.87,326.15a.41.41,0,0,1-.29-.11,15.29,15.29,0,0,0-8.55-3.66.44.44,0,0,1-.41-.46.41.41,0,0,1,.46-.41,15.89,15.89,0,0,1,9.08,3.89.43.43,0,0,1,0,.61A.4.4,0,0,1,182.87,326.15Z" style="fill:#fafafa"></path><path d="M184.06,323.38a.43.43,0,0,1-.32-.14,14.65,14.65,0,0,0-8.72-4.3.44.44,0,0,1,.07-.87,15.36,15.36,0,0,1,9.29,4.58.44.44,0,0,1,0,.62A.46.46,0,0,1,184.06,323.38Z" style="fill:#fafafa"></path><path d="M185.32,320.44a.46.46,0,0,1-.35-.17c-3.11-4-8.53-4.53-8.58-4.54a.43.43,0,1,1,.07-.86c.24,0,5.85.53,9.2,4.87a.44.44,0,0,1-.34.7Z" style="fill:#fafafa"></path><path d="M186.57,317.29a.45.45,0,0,1-.36-.19c-2.87-4.05-8.67-4.63-8.72-4.64a.44.44,0,0,1-.4-.47.45.45,0,0,1,.47-.39c.26,0,6.25.61,9.36,5a.43.43,0,0,1-.1.61A.46.46,0,0,1,186.57,317.29Z" style="fill:#fafafa"></path><path d="M187.88,314.67a.42.42,0,0,1-.35-.18,12.49,12.49,0,0,0-8.62-4.57.45.45,0,0,1-.43-.45.44.44,0,0,1,.44-.42h0a13.5,13.5,0,0,1,9.31,4.94.42.42,0,0,1-.1.6A.38.38,0,0,1,187.88,314.67Z" style="fill:#fafafa"></path><path d="M159.14,203.28c-7.37,20.92-7.16,27.08-9.28,57.12,0,0,2.66,2.73,12.92,6.43a25.7,25.7,0,0,0,18.26,0l9.56-30.5,9.14,22.83s9.33.64,17-2.86c10.84-4.93,10.69-8.44,10.69-8.44-3.75-15-10.59-34.84-18.25-56h0S166.51,182.36,159.14,203.28Z" style="fill:#455a64"></path><path d="M190.6,236.33l2.78-9.49s10.31-4.28,12.48-13c0,2.55.5,9.19-11.05,15.25l-2,7.22,7,22.83Z" style="fill:#37474f"></path></g><g id="freepik--Top--inject-152"><path d="M250.68,130.77c-1.73,2.94-2.49,6.52-2.76,13.23-.3,7.34-1.38,15.3-4.57,19.2-2.11,2.59-3,2.39-16.07.73-11.87-1.51-23.38-2.84-23.38-2.84L179.7,139c2.19-.52,6.54-1.09,15.51.48,10.47,1.84,37,7,37,7s.91-1.93,1.92-4.11,3.08-6.53,1.93-8.55Z" style="fill:#b16668"></path><path d="M232.24,146.52c-1.51,3-2.26,6.37-1.2,9.37-1.79-2.29-2.06-7-.32-9.69Z" style="fill:#9a4a4d"></path><path d="M244.25,135.17a11.82,11.82,0,0,1-8.9-1.71c-1.8-1-3.44-1.65-4.74-1.38a19.88,19.88,0,0,1-5.62.72,1.85,1.85,0,0,1-1.11-3.32c1.33-1.19,3-1,4.86-1.22s7.09-2.22,7.3-5.75-1-6.35-1.92-8.92-2.14-4.64-.68-5.71,2.18.59,3.07,2.52,2.45,5.94,2.94,6.79,1.5,1.18,1.59,0a20.81,20.81,0,0,0-.75-5.14c-.52-2.35-1-4.66.66-5s2.13,1.52,2.57,3.22,1.12,5.26,1.33,6.19.89,2,1.29.21a29.81,29.81,0,0,0,.49-4.75c.11-1.48,0-3.24,1.58-3.23s2.18,1.57,2.13,3.33a44.56,44.56,0,0,1-.85,5.89c-.26,1.43-.18,3.8,1.1,2s1.69-2.7,2.33-3.41,2.22-.41,1.93,1.23-1.67,3.57-1.85,4.54a16.76,16.76,0,0,1-.79,3.26c-.42,1-.31,3.18-1.32,4.9S248.8,134.28,244.25,135.17Z" style="fill:#b16668"></path><path d="M234.94,112.69c-.89-.9-.85-1.6-.15-1.88s1.43-1,1-1.93c.25.45.49,1,.74,1.52.64,1.37,1.61,3.82,2.3,5.41h0C237.84,113.53,235.82,113.59,234.94,112.69Z" style="fill:#9a4a4d"></path><path d="M245.78,117.55h0c-.16.25-.93.86-1.56-.42a17.25,17.25,0,0,0-2.55-4.22,3.8,3.8,0,0,1-1.23-2.36c0-.37.44-.08,1.34-.34a1.67,1.67,0,0,0,1.1-2,12.79,12.79,0,0,1,.64,2c.43,1.71,1.12,5.26,1.33,6.19C245,117.15,245.42,117.92,245.78,117.55Z" style="fill:#9a4a4d"></path><path d="M248.45,116c-.18-.31-1.35-.65-1.26-1.06s.65-.31.72-.62a17.84,17.84,0,0,0-.71-2.1c-.16-.7.14-.87,1-.55s2-.75,2-1.34a5.16,5.16,0,0,1,.19,1.65,44.56,44.56,0,0,1-.85,5.89c-.18,1-.2,2.38.22,2.61h0c-.77-.06-1.84-1.35-1.63-2.07A6.07,6.07,0,0,0,248.45,116Z" style="fill:#9a4a4d"></path><path d="M226.73,132.79c2.59-.44,3.72-1.83,5.74-1.72s5.2,1.37,8.65,1.87,6.56-.51,7.56-1.58,3.15-5.3,1.09-5.83-5-1.61-6.1-2.86C246,124,249.54,125,250.6,125a1.3,1.3,0,0,0,1.24-1.64c-.23-.58-1.08-.93-1-1.2s.71-.24,1-.58.92-1.5.6-2.15-.27-1.4.27-1.22,1.52.42,2-.11c-.4,1.57-1.61,3.29-1.78,4.2a16.76,16.76,0,0,1-.79,3.26c-.42,1-.31,3.18-1.32,4.9s-2.09,3.87-6.64,4.76a11.82,11.82,0,0,1-8.9-1.71c-1.8-1-3.44-1.65-4.74-1.38A33.7,33.7,0,0,1,226.73,132.79Z" style="fill:#9a4a4d"></path><path d="M238,125.34a3,3,0,0,1,1,.25c.36.13.73.26,1.08.42a12.24,12.24,0,0,1,2.09,1.24,11.48,11.48,0,0,1,3.21,3.55,9.9,9.9,0,0,1,1,2.61c.08.33-.51.43-.59.09a10.26,10.26,0,0,0-3.15-5.15,13.18,13.18,0,0,0-2.23-1.61c-.38-.22-.77-.44-1.17-.65a6.7,6.7,0,0,1-1.28-.65S237.94,125.35,238,125.34Z" style="fill:#9a4a4d"></path><g id="freepik--Chest--inject-152"><path d="M156.6,209.57c1.58-4.28,3.08-12.95,2.1-16.88-1.07-4.3-4.56-10.75-5.9-13.53-2.38-4.93-5-18.55-5.08-23.52s2.94-8.45,20.47-13.71c11.81-3.55,14.8-4.88,20.47-1.77,4.94,2.7,15.88,10.09,19.05,18.25a15.9,15.9,0,0,1-2.14,15.81,58.41,58.41,0,0,0,1.61,10.67c1,3.84,2.38,6.65,5.75,15.19,0,0-4.15,14.47-25.85,16.76C168.47,218.81,156.6,209.57,156.6,209.57Z" style="fill:#055EAF"></path><path d="M156.6,209.57c1.58-4.28,3.08-12.95,2.1-16.88-1.07-4.3-4.56-10.75-5.9-13.53-2.38-4.93-5-18.55-5.08-23.52s2.94-8.45,20.47-13.71c11.81-3.55,14.8-4.88,20.47-1.77,4.94,2.7,15.88,10.09,19.05,18.25a15.9,15.9,0,0,1-2.14,15.81,58.41,58.41,0,0,0,1.61,10.67c1,3.84,2.38,6.65,5.75,15.19,0,0-4.15,14.47-25.85,16.76C168.47,218.81,156.6,209.57,156.6,209.57Z" style="fill:#fff;opacity:0.6000000000000001"></path></g><g id="freepik--Head--inject-152"><path d="M156.5,128.5c-2.38.88-2.24,3.36-1.72,5.79a2.6,2.6,0,0,0-2.25,1.55,5.82,5.82,0,0,0-.6,3.27c-2.49.39-3,.93-4,1.89a8.76,8.76,0,0,0-1.29,2.18,7.73,7.73,0,0,0-4.82.57,3.79,3.79,0,0,0-2.08,2.38,4.18,4.18,0,0,0-3.37-.93,4.93,4.93,0,0,0-2.74,1.33,2.22,2.22,0,0,0-1.92-1.27c-1.66.05-2.1,1-3.07,1.1a2.25,2.25,0,0,1-2.16-.8,4.26,4.26,0,0,0,6.81,2.12c.2,2.12,4.06,1.66,4.89.23a4.87,4.87,0,0,0,7-1.54c2.42,1.92,6.63-.46,6.63-3.12,2.16.63,4.82-.09,4.71-2.68,1.65-.25,4.12-.5,4.06-3a3.44,3.44,0,0,0,3.25-1.63c.72-1.16.1-2.65-.15-4C163.32,129.74,158.92,126,156.5,128.5Z" style="fill:#263238"></path><path d="M164.34,120.94c-2.48.53-2.69,3-2.53,5.49a2.6,2.6,0,0,0-2.44,1.21,5.91,5.91,0,0,0-1.06,3.16c-2.51,0-3.13.49-4.19,1.31a8.79,8.79,0,0,0-1.59,2,7.76,7.76,0,0,0-4.85-.11,3.73,3.73,0,0,0-2.39,2.06,4.19,4.19,0,0,0-3.21-1.4,4.9,4.9,0,0,0-2.9.94,2.21,2.21,0,0,0-1.73-1.54c-1.64-.18-2.2.65-3.19.65a2.23,2.23,0,0,1-2-1.09,4.25,4.25,0,0,0,6.44,3.06c-.1,2.13,3.79,2.22,4.81.92a4.86,4.86,0,0,0,7.19-.53c2.14,2.24,6.64.48,7-2.15,2.05.93,4.78.59,5-2,1.67,0,4.15.09,4.45-2.38a3.41,3.41,0,0,0,3.44-1.15c.88-1.05.48-2.61.41-4C170.91,123.13,167.09,118.77,164.34,120.94Z" style="fill:#263238"></path><path d="M169.07,140.53c-2-1.12-6.69-4.66-11.45-7.11-6.61-3.41-14.16-14.29-7-19.55-3.64-12.15,11.65-19.91,20-20.73,23.5-2.31,22,15.24,18.52,17.69Z" style="fill:#263238"></path><path d="M184.34,101.24c3.18,2.1,4.76,5.11,6.57,17.93,1.42,10.14-.26,14.13-3.23,16.09a18,18,0,0,1-7.37,2.13l-.32,4.67s8.24,4.52,8.75,16.35c-20.85-3.85-26-13.14-26-13.14l-.31-16.13c-.48,1.49-3.64,3.6-6.91,1.06-3.68-2.85-3.87-7.38-1.72-9.5s5.52-1.27,7.29,1.4c1.23,1.79,3.32,1.64,3.82-1,.44-2.36-.56-6.83-1.7-11.7C168.64,104.88,176.71,99.06,184.34,101.24Z" style="fill:#b16668"></path><polygon points="179.52 113.81 182.05 124.47 187.2 121.62 179.52 113.81" style="fill:#9a4a4d"></polygon><path d="M182.22,94.45c2.5,4.11.88,11.76-4.84,15.91.55-3.21-1.1-8.48-1.1-8.48s-.06,12.65-14.91,13.67L157.28,104C162.26,97.74,173.33,91.64,182.22,94.45Z" style="fill:#263238"></path><path d="M180.31,137.39c-8,.48-14.45-2.16-16-5.34a11.5,11.5,0,0,0,4.36,5.12c4,2.42,11.55,2.05,11.55,2.05Z" style="fill:#9a4a4d"></path><path d="M184,127.16l-6.32-.25a3,3,0,0,0,2.9,3.28A3.33,3.33,0,0,0,184,127.16Z" style="fill:#9a4a4d"></path><path d="M181.91,130a3.24,3.24,0,0,1-1.35.24,3,3,0,0,1-2.65-1.8A3.65,3.65,0,0,1,181.91,130Z" style="fill:#f28f8f"></path><path d="M172.8,117.71a1.72,1.72,0,1,0,1.11-2.16A1.72,1.72,0,0,0,172.8,117.71Z" style="fill:#263238"></path><path d="M184.42,116.21a1.72,1.72,0,1,0,1.11-2.16A1.72,1.72,0,0,0,184.42,116.21Z" style="fill:#263238"></path><path d="M188.09,112l-4.09-.83a2,2,0,0,1,2.39-1.65A2.18,2.18,0,0,1,188.09,112Z" style="fill:#263238"></path><path d="M170.42,114.67l3.5-2.37a2,2,0,0,0-2.88-.61A2.2,2.2,0,0,0,170.42,114.67Z" style="fill:#263238"></path></g><path d="M104.36,150.11c-2.06.63-4.77.45-8.15,2.25s-4.47,3.12-4.68,5.37c-.09.93,2.86.31,6.55-.66S104.36,150.11,104.36,150.11Z" style="fill:#9a4a4d"></path><path d="M154.61,146.94c-9.78,3.47-10.16,5.92-19.35,14.41-10.2,9.43-19.74,17.41-19.74,17.41l5.21,18.86s23.88-16.55,34.42-24.63C165.87,157.48,154.61,146.94,154.61,146.94Z" style="fill:#b16668"></path><path d="M102.86,167.64c3.49,8.58,1.65,18.83,5,24.91,4.08,7.29,6.18,9.25,12.82,5.07l1-18.31c-1.57-5.74-6.22-8.93-8.11-16.26C112.57,159.15,102.86,167.64,102.86,167.64Z" style="fill:#b16668"></path><path d="M119.84,175.08A20.33,20.33,0,0,1,124,186.82s2.63-5-2.4-13.25Z" style="fill:#9a4a4d"></path><path d="M111.41,169.33a1.18,1.18,0,0,1-.1,1.32,4.19,4.19,0,0,1-3.38,1.73,1.46,1.46,0,0,1-1.29-.59h0L93.81,147l4.81-2.4Z" style="fill:#455a64"></path><path d="M109.56,172a3.73,3.73,0,0,1-1.63.34,1.46,1.46,0,0,1-1.29-.59h0L93.81,147,96,145.94Z" style="fill:#37474f"></path><path d="M98.43,145.93a4.19,4.19,0,0,1-3.38,1.73c-1.22-.06-1.69-.92-1-1.93A4.18,4.18,0,0,1,97.39,144C98.61,144.05,99.08,144.92,98.43,145.93Z" style="fill:#263238"></path><path d="M97.72,145.09a.77.77,0,0,1-.06.84A2.64,2.64,0,0,1,95.52,147c-.4,0-.71-.14-.82-.37h0L79.24,116.81l3.05-1.52Z" style="fill:#455a64"></path><path d="M96.55,146.8a2.28,2.28,0,0,1-1,.22c-.4,0-.71-.14-.82-.37h0L79.24,116.81l1.37-.69Z" style="fill:#37474f"></path><path d="M82.17,116.12A2.64,2.64,0,0,1,80,117.21c-.78,0-1.07-.58-.66-1.22a2.68,2.68,0,0,1,2.14-1.1C82.29,114.93,82.58,115.48,82.17,116.12Z" style="fill:#263238"></path><path d="M82.78,117.45a7.39,7.39,0,0,1-3.6,1.38C74,119.42,67.35,115,61.5,107.11c-8.83-12-13-27.72-9.43-35.83a7.76,7.76,0,0,1,6.39-5.06C63.68,65.64,70.29,70,76.14,78c8.83,12,13,27.71,9.43,35.83A8.82,8.82,0,0,1,82.78,117.45Zm-25.84-47a5.39,5.39,0,0,0-1.68,2.26c-3,6.84,1.16,21.66,9.05,32.36,4.94,6.71,10.63,10.76,14.48,10.33a4.39,4.39,0,0,0,3.59-3c3-6.84-1.16-21.66-9-32.36C68.39,73.31,62.7,69.26,58.85,69.69A3.81,3.81,0,0,0,56.94,70.42Z" style="fill:#055EAF"></path><path d="M82.78,117.45a7.39,7.39,0,0,1-3.6,1.38C74,119.42,67.35,115,61.5,107.11c-8.83-12-13-27.72-9.43-35.83a7.76,7.76,0,0,1,6.39-5.06C63.68,65.64,70.29,70,76.14,78c8.83,12,13,27.71,9.43,35.83A8.82,8.82,0,0,1,82.78,117.45Zm-25.84-47a5.39,5.39,0,0,0-1.68,2.26c-3,6.84,1.16,21.66,9.05,32.36,4.94,6.71,10.63,10.76,14.48,10.33a4.39,4.39,0,0,0,3.59-3c3-6.84-1.16-21.66-9-32.36C68.39,73.31,62.7,69.26,58.85,69.69A3.81,3.81,0,0,0,56.94,70.42Z" style="fill:#fff;opacity:0.2"></path><path d="M83.33,105.81l-2.79,5.59-6.23-2.94,3-6.09,6,2.81c0-.33,0-.66-.1-1l-5.46-2.58,3-6.09.59.28c-.21-.67-.44-1.35-.69-2l-.3.6-6.15-2.91L77,85.82c-.39-.7-.8-1.41-1.22-2.09l-5.1-2.41,1.42-2.85-.61-.74L69.93,81l-6.15-2.9,2.65-5.32-.71-.53L63,77.67l-6.47-3,2.47-5h-.14a4.22,4.22,0,0,0-1,.24l-2.16,4.33-.89-.41c-.08.27-.14.56-.21.86l.71.33-1,2c0,.64,0,1.31,0,2l1.83-3.66,6.48,3.06-3,6.08-5-2.35c0,.34.1.69.17,1l4.42,2.09L56.64,90.4c.13.37.27.75.41,1.12L60,85.69l6.14,2.9-3,6.09L57.2,91.91c.14.39.29.78.46,1.17l5,2.38-2,4,.52.89,2.24-4.51,6.16,2.91-3,6.09-3.65-1.72c.33.49.66,1,1,1.42l2.27,1.07-.57,1.15.61.74L67,106l6.15,2.9-1.78,3.57c.24.19.48.36.71.52l1.86-3.72,6.22,2.93-1.61,3.23.25,0a4.36,4.36,0,0,0,.83-.18l1.32-2.64,1.09.52a5.56,5.56,0,0,0,.35-.69.36.36,0,0,0,0-.09l-1.1-.52,2-4C83.36,107.12,83.36,106.48,83.33,105.81ZM80,95.14l-3,6.08-6.15-2.9,3-6.08Zm-9.66-13L76.48,85l-3,6.09-6.15-2.91Zm-10,2.82,3-6.09,6.15,2.91-3,6.09Zm3.52,10.14,3-6.09,6.15,2.9L70,98Zm9.66,13-6.16-2.91,3-6.08L76.57,102Z" style="fill:#e0e0e0"></path><path d="M112.21,161.66a2.24,2.24,0,0,0-.56-.92,5.73,5.73,0,0,0-1.58-.9.32.32,0,0,1-.12-.08.36.36,0,0,1,0-.15,3.88,3.88,0,0,0-.15-2,2,2,0,0,0-1-.79c-.39-.17-.8-.27-1.19-.43a.68.68,0,0,1-.37-.29.69.69,0,0,1,0-.35c0-.35,0-.7.07-1.05v-.26a.48.48,0,0,0,0-.29,2.91,2.91,0,0,0-1.48-1.35c-1.06-.43-1.92,0-2.93.33-1.47.47-3,.9-4.44,1.3A57.25,57.25,0,0,0,93,156.3c-.67.33-1.26.66-1.44,1.43a2.2,2.2,0,0,0,.73,2.18c.44.36,1.06.59,1.2,1.13a2.08,2.08,0,0,1,0,.66,3.18,3.18,0,0,0,.2,1.56,1.82,1.82,0,0,0,1.15,1,1.85,1.85,0,0,1,.57.15c.41.26.33.87.43,1.34a2.31,2.31,0,0,0,1.7,1.49,2.3,2.3,0,0,1,.8.35c.43.36.42,1,.67,1.53a2.11,2.11,0,0,0,1.51,1c1.55.29,3.4-.32,4.91-.66a49.72,49.72,0,0,0,5.9-1.64,4.65,4.65,0,0,0,1.58-.92,4.4,4.4,0,0,0,.38-.37,2.32,2.32,0,0,0,.3-.4,1,1,0,0,0-.17-.93,6.3,6.3,0,0,0-.82-.73,1.3,1.3,0,0,1-.53-.93,3.14,3.14,0,0,1,.17-.67A2.18,2.18,0,0,0,112.21,161.66Z" style="fill:#b16668"></path><path d="M113.57,163.05c-.44-3.43-.51-5.83-1.89-8.14s-2.7-4.79-4.22-5.6-2.35.47-5.15,2.15c-2.14,1.3-4.51,2.14-2.32,3.48s6.18-.77,6.18-.77C108,158.81,110.22,162.31,113.57,163.05Z" style="fill:#b16668"></path><path d="M99.14,154.19c1.3,3.77,7.2.12,7.24.09s.35.94.35,1a1.66,1.66,0,0,1-.39,1.13,1.59,1.59,0,0,0-.28.36s0,0,0,.07.08.06.13.06a10.85,10.85,0,0,1,1.71,0,2,2,0,0,1,1.54,1,1.63,1.63,0,0,1,0,1.35,2,2,0,0,1-.93,1c-.16.08-.35.25-.24.39a4.16,4.16,0,0,1,1.95-.16,2.59,2.59,0,0,1,1.31.54,1.47,1.47,0,0,1,.52,1.28,1.75,1.75,0,0,1-.71,1c-.34.26-.73.44-1.09.68-.08.05-.16.14-.11.21s.09,0,.14,0h.89a4.28,4.28,0,0,1,1,.1c1.2.35,1.55,1.64.48,2.67a2,2,0,0,0,1-1.29,2.37,2.37,0,0,0-.25-1.32,2.11,2.11,0,0,0-.84-1,.3.3,0,0,1-.15-.12c-.09-.13,0-.3.09-.43a1.93,1.93,0,0,0,.22-1.37,2.37,2.37,0,0,0-.75-1.2,3.67,3.67,0,0,0-1.33-.79l-.11,0c-.1-.08-.08-.23-.06-.35a3.35,3.35,0,0,0,.07-1.22,2.06,2.06,0,0,0-.5-1.11,3.34,3.34,0,0,0-2-.82.65.65,0,0,1-.5-.26.89.89,0,0,1,0-.46,2.13,2.13,0,0,0-.32-1.17c-.05-.1-.38-.8-.57-.68,0,0-.67.41-2.24,1.19S100,156,99.14,154.19Z" style="fill:#9a4a4d"></path></g></g></g><g id="freepik--Ball--inject-152"><g id="freepik--Shuttlecock--inject-152"><g id="freepik--shuttlecock--inject-152"><path d="M182.53,46.33a4.14,4.14,0,0,0,5.21-6.44Z" style="fill:#055EAF"></path><path d="M186.85,39.17a2.08,2.08,0,0,0-2.08-.12,6.47,6.47,0,0,0-3.68,4.56,2.07,2.07,0,0,0,.55,2l.89.72a2.07,2.07,0,0,0,2.07.12,6.47,6.47,0,0,0,3.69-4.55,2.08,2.08,0,0,0-.55-2Z" style="fill:#37474f"></path><path d="M187.4,41.18a2.05,2.05,0,0,0-.55-2,2.08,2.08,0,0,0-2.08-.12,6.47,6.47,0,0,0-3.68,4.56,2.07,2.07,0,0,0,.55,2,2,2,0,0,0,2.08.12A6.48,6.48,0,0,0,187.4,41.18Z" style="fill:#455a64"></path><path d="M167.39,28.76c-.39.47.54,2.64,3.15,4.76s8.59,5.93,9.17,5.21-4.39-5.77-7-7.88S167.77,28.28,167.39,28.76Z" style="fill:#055EAF"></path><path d="M167.39,28.76c-.39.47.54,2.64,3.15,4.76s8.59,5.93,9.17,5.21-4.39-5.77-7-7.88S167.77,28.28,167.39,28.76Z" style="fill:#fff;opacity:0.4"></path><path d="M182.39,41.05a.17.17,0,0,1-.1,0l-11.24-9.09a.16.16,0,1,1,.2-.26l11.24,9.09a.16.16,0,0,1,0,.23A.16.16,0,0,1,182.39,41.05Z" style="fill:#e0e0e0"></path><path d="M170.19,26.48c-.39.48.42,2.76,2.85,5.05s8,6.48,8.6,5.75-4-6.13-6.44-8.42S170.57,26,170.19,26.48Z" style="fill:#055EAF"></path><path d="M170.19,26.48c-.39.48.42,2.76,2.85,5.05s8,6.48,8.6,5.75-4-6.13-6.44-8.42S170.57,26,170.19,26.48Z" style="fill:#fff;opacity:0.35000000000000003"></path><path d="M184.12,39.79a.15.15,0,0,1-.11,0L173.57,29.9a.17.17,0,0,1,0-.23.16.16,0,0,1,.23,0l10.45,9.85a.17.17,0,0,1,0,.23A.17.17,0,0,1,184.12,39.79Z" style="fill:#e0e0e0"></path><path d="M173,25.46c-.39.48.27,2.81,2.46,5.19s7.25,6.74,7.84,6-3.5-6.32-5.68-8.69S173.4,25,173,25.46Z" style="fill:#055EAF"></path><path d="M173,25.46c-.39.48.27,2.81,2.46,5.19s7.25,6.74,7.84,6-3.5-6.32-5.68-8.69S173.4,25,173,25.46Z" style="fill:#fff;opacity:0.30000000000000004"></path><path d="M185.56,39.26a.17.17,0,0,1-.12,0L176,29a.16.16,0,1,1,.24-.22L185.68,39a.17.17,0,0,1,0,.23A.15.15,0,0,1,185.56,39.26Z" style="fill:#e0e0e0"></path><path d="M165.75,32c.38-.47,2.78-.16,5.53,1.74s8,6.48,7.42,7.2-6.83-2.63-9.58-4.53S165.36,32.45,165.75,32Z" style="fill:#055EAF"></path><path d="M165.75,32c.38-.47,2.78-.16,5.53,1.74s8,6.48,7.42,7.2-6.83-2.63-9.58-4.53S165.36,32.45,165.75,32Z" style="fill:#fff;opacity:0.35000000000000003"></path><path d="M181.52,43a.17.17,0,0,1-.1,0l-11.81-8.16a.16.16,0,0,1,0-.22.14.14,0,0,1,.22,0l11.82,8.15a.16.16,0,0,1,0,.22A.16.16,0,0,1,181.52,43Z" style="fill:#e0e0e0"></path><path d="M165.34,35c.39-.47,2.81-.32,5.59,1.32S179,42,178.45,42.68s-6.9-2.09-9.68-3.74S165,35.43,165.34,35Z" style="fill:#055EAF"></path><path d="M165.34,35c.39-.47,2.81-.32,5.59,1.32S179,42,178.45,42.68s-6.9-2.09-9.68-3.74S165,35.43,165.34,35Z" style="fill:#fff;opacity:0.30000000000000004"></path><path d="M181.3,44.53a.11.11,0,0,1-.08,0l-12-7a.16.16,0,0,1-.06-.22.17.17,0,0,1,.23-.06l11.95,7a.18.18,0,0,1,.06.23A.17.17,0,0,1,181.3,44.53Z" style="fill:#e0e0e0"></path><path d="M176,25.6c.38-.47,2.22.29,4.07,2.92s5.55,9.21,5,9.93-5.29-4.64-7.13-7.26S175.63,26.08,176,25.6Z" style="fill:#055EAF"></path><path d="M176,25.6c.38-.47,2.22.29,4.07,2.92s5.55,9.21,5,9.93-5.29-4.64-7.13-7.26S175.63,26.08,176,25.6Z" style="fill:#fff;opacity:0.5"></path><path d="M186.6,40.8a.14.14,0,0,1-.11-.06l-7.93-11.28a.13.13,0,0,1,0-.2.14.14,0,0,1,.2,0l7.93,11.28a.14.14,0,0,1,0,.2Z" style="fill:#e0e0e0"></path><path d="M166.11,37.86c-.39.47.75,2.11,3.7,3.37S180,44.73,180.56,44s-5.64-4.2-8.59-5.45S166.49,37.38,166.11,37.86Z" style="fill:#055EAF"></path><path d="M166.11,37.86c-.39.47.75,2.11,3.7,3.37S180,44.73,180.56,44s-5.64-4.2-8.59-5.45S166.49,37.38,166.11,37.86Z" style="fill:#fff;opacity:0.5"></path><path d="M183,45.21H183L170.3,39.8a.15.15,0,0,1,.11-.27l12.69,5.4a.15.15,0,0,1,.07.19A.14.14,0,0,1,183,45.21Z" style="fill:#e0e0e0"></path><path d="M171.53,36.25c-.39.47.3,2.25,2.54,3.72s7.43,4,8,3.23-3.61-4.42-5.86-5.9S171.91,35.77,171.53,36.25Z" style="fill:#055EAF"></path><path d="M171.53,36.25c-.39.47.3,2.25,2.54,3.72s7.43,4,8,3.23-3.61-4.42-5.86-5.9S171.91,35.77,171.53,36.25Z" style="fill:#fff;opacity:0.55"></path><path d="M184.38,44.86l-.08,0-9.63-6.35a.14.14,0,0,1,0-.2.14.14,0,0,1,.2,0l9.63,6.34a.16.16,0,0,1,0,.2A.13.13,0,0,1,184.38,44.86Z" style="fill:#e0e0e0"></path><path d="M175.58,31.24c.38-.48,2.26-.17,4.17,1.71s5.42,6.44,4.84,7.16-5.08-2.6-7-4.49S175.19,31.71,175.58,31.24Z" style="fill:#055EAF"></path><path d="M175.58,31.24c.38-.48,2.26-.17,4.17,1.71s5.42,6.44,4.84,7.16-5.08-2.6-7-4.49S175.19,31.71,175.58,31.24Z" style="fill:#fff;opacity:0.55"></path><path d="M186.55,42.18a.15.15,0,0,1-.11,0l-8.22-8.09a.15.15,0,1,1,.21-.21l8.22,8.1a.15.15,0,0,1,0,.2A.14.14,0,0,1,186.55,42.18Z" style="fill:#e0e0e0"></path><path d="M174,34.06c-.39.48.19,2.37,2.25,4s6.85,4.53,7.44,3.81-3.23-4.82-5.28-6.48S174.33,33.59,174,34.06Z" style="fill:#055EAF"></path><path d="M174,34.06c-.39.48.19,2.37,2.25,4s6.85,4.53,7.44,3.81-3.23-4.82-5.28-6.48S174.33,33.59,174,34.06Z" style="fill:#fff;opacity:0.6000000000000001"></path><path d="M185.74,43.75a.12.12,0,0,1-.09,0l-8.84-7.14a.15.15,0,1,1,.19-.23l8.83,7.15a.14.14,0,0,1,0,.2A.14.14,0,0,1,185.74,43.75Z" style="fill:#e0e0e0"></path><path d="M185.65,37.75l.59.7a3.55,3.55,0,0,1,0,1,7.74,7.74,0,0,1-4.41,5.45,3.6,3.6,0,0,1-1,.25l-.82-.44a3.65,3.65,0,0,0,1.26-.25A7.77,7.77,0,0,0,185.66,39,3.89,3.89,0,0,0,185.65,37.75Z" style="fill:#37474f"></path><path d="M184.34,35.77l.74.88a5,5,0,0,1-.07.75,9.61,9.61,0,0,1-5.48,6.78,5.56,5.56,0,0,1-.73.23l-1-.54a4.66,4.66,0,0,0,1-.28,9.63,9.63,0,0,0,5.48-6.78A4.71,4.71,0,0,0,184.34,35.77Z" style="fill:#37474f"></path></g><path d="M161.59,45.78a79.79,79.79,0,0,0-16.26,1,100.66,100.66,0,0,0-16.06,3.85,102,102,0,0,0-29.11,15.09c-2.44,1.82-4.81,3.75-7.07,5.81a59.57,59.57,0,0,0-6.43,6.67c-.14.17.21.53.37.37a158.09,158.09,0,0,1,12.26-11A101.26,101.26,0,0,1,143,48c3-.54,6-1,8.94-1.23,3.26-.3,6.52-.39,9.79-.47C162.11,46.3,161.89,45.79,161.59,45.78Z" style="fill:#455a64"></path></g></g><g id="freepik--Net--inject-152"><g id="freepik--net--inject-152"><path d="M57.4,415.41a.28.28,0,0,1-.15,0l0,0a.2.2,0,0,1-.08-.08l0,0,0-.06v0l0-.12V339.33L158,281h0l.09-.09,7.13-4.1,115.12-66.47h0l.07-.05,7.1-4.1h0l.08,0,7.1-4.1h0l.08-.05,7.09-4.1h0l.09-.06,7.09-4.09h0l.09-.06,7.08-4.09h0l.1-.06,7.08-4.09h0l.1-.06,7.07-4.09h0l.11-.07,7.07-4.08h0l.11-.06,7.06-4.08h0l.11-.07,7.06-4.08h0l.11-.07,7.05-4.07h0l.13-.08,7-4.06h0l.13-.08,7-4.07h0l.13-.08,7-4.06a.48.48,0,0,1,.11-.08l7.08-4.08.12-.07,7.07-4.08.13-.08.39-.22v76.33L57.57,415.36a.58.58,0,0,1-.17.05Zm.34-8.54v7.59l6.51-3.76v-7.58Zm7.2-4.16v7.59l6.5-3.75V399Zm7.2-4.15v7.58l6.5-3.75V394.8Zm-14.4-.08v7.59l6.51-3.76v-7.59Zm21.6-4.08V402l6.5-3.76v-7.58Zm-14.4-.08v7.59l6.5-3.76v-7.58Zm21.6-4.08v7.59l6.5-3.75v-7.59Zm-14.4-.08v7.59l6.5-3.75v-7.59Zm-14.4-.07v7.58l6.51-3.75v-7.59Zm36-4v7.58l6.5-3.75v-7.59ZM79.34,386v7.59l6.5-3.76v-7.59Zm-14.4-.08v7.59l6.5-3.76v-7.58Zm36-4v7.59l6.5-3.76v-7.58Zm-14.4-.08v7.59l6.5-3.76V378.1Zm-14.4-.08v7.59l6.5-3.76V378Zm-14.4-.08v7.59l6.51-3.75v-7.59Zm50.4-3.92v7.59l6.5-3.75V374Zm-14.4-.08v7.59l6.5-3.75v-7.59Zm-14.4-.07v7.58l6.5-3.75v-7.59Zm-14.4-.08v7.58l6.5-3.75v-7.59Zm50.4-3.92v7.58l6.5-3.75v-7.59Zm-14.4-.08v7.59l6.5-3.76v-7.59Zm-14.4-.08v7.59l6.5-3.76V369.7Zm-14.4-.08V381l6.5-3.76v-7.58Zm-14.4-.08v7.59l6.51-3.75v-7.59Zm64.8-3.84v7.59l6.5-3.76v-7.58Zm-14.4-.08V377l6.5-3.76v-7.58Zm-14.4-.08v7.59l6.5-3.75v-7.59Zm-14.4-.08v7.59l6.5-3.75v-7.59Zm-14.4-.07v7.58l6.5-3.75v-7.59Zm64.8-3.85v7.59l6.5-3.75v-7.59Zm-14.4-.08v7.59l6.5-3.75v-7.59Zm-14.4-.07v7.58l6.5-3.75v-7.59Zm-14.4-.08v7.58L93,368.9v-7.59ZM72.14,365v7.59l6.5-3.76v-7.59Zm-14.4-.08v7.59l6.51-3.76v-7.58Zm79.19-3.76v7.58l6.51-3.75v-7.59Zm-14.39-.08v7.59l6.5-3.76v-7.59Zm-14.4-.08v7.59l6.5-3.76v-7.59Zm-14.4-.08v7.59l6.5-3.76v-7.58Zm-14.4-.08v7.59l6.5-3.76v-7.58Zm-14.4-.08v7.59l6.5-3.75V357ZM144.13,357v7.59l6.51-3.76v-7.58Zm-14.39-.08v7.59l6.5-3.76v-7.58Zm-14.4-.08v7.59l6.5-3.76v-7.58Zm-14.4-.08v7.59l6.5-3.75V353Zm-14.4-.07v7.58l6.5-3.75v-7.59Zm-14.4-.08v7.58l6.5-3.75v-7.59Zm-14.4-.08v7.58l6.51-3.75v-7.59Zm93.59-3.69v7.59l6.5-3.75v-7.59Zm-14.4-.08v7.59l6.51-3.75V349Zm-14.39-.07v7.58l6.5-3.75v-7.59Zm-14.4-.08v7.58l6.5-3.75v-7.59Zm-14.4-.08v7.59l6.5-3.76v-7.58Zm-14.4-.08V360l6.5-3.76v-7.58Zm-14.4-.08V360l6.5-3.76v-7.58Zm93.59-3.68v7.58l6.5-3.75v-7.59Zm-14.4-.08v7.59l6.51-3.76v-7.59Zm-14.39-.08v7.59l6.5-3.76v-7.58Zm-14.4-.08V356l6.5-3.76v-7.58Zm-14.4-.08V356l6.5-3.76v-7.58Zm-14.4-.08v7.59l6.5-3.75v-7.59Zm-14.4-.07v7.58l6.5-3.75v-7.59Zm-14.4-.08v7.58L64.25,352v-7.59Zm108-3.61v7.59l6.5-3.76v-7.58Zm-14.4-.08V352l6.5-3.76v-7.58Zm-14.4-.08V352l6.51-3.76v-7.58Zm-14.39-.08v7.59l6.5-3.75v-7.59Zm-14.4-.07v7.58l6.5-3.75v-7.59Zm-14.4-.08v7.58l6.5-3.75v-7.59Zm-14.4-.08v7.59l6.5-3.76v-7.59ZM64.94,344v7.59l6.5-3.76v-7.58Zm108-3.61V348l6.5-3.75v-7.59Zm-14.4-.07v7.58l6.5-3.75v-7.59Zm-14.4-.08v7.58l6.51-3.75v-7.59Zm-14.39-.08v7.58l6.5-3.75v-7.59Zm-14.4-.08v7.59l6.5-3.76V336.3Zm-14.4-.08v7.59l6.5-3.76v-7.58Zm-14.4-.08v7.59l6.5-3.76v-7.58Zm-14.4-.08v7.59l6.5-3.75v-7.59Zm-14.4-.08v7.59l6.51-3.75V336Zm122.39-3.52v7.58l6.5-3.75v-7.59Zm-14.4-.08v7.59l6.5-3.76v-7.59Zm-14.4-.08v7.59l6.5-3.76V332.3Zm-14.4-.08v7.59l6.51-3.76v-7.58Zm-14.39-.08v7.59l6.5-3.75v-7.59Zm-14.4-.08v7.59l6.5-3.75v-7.59Zm-14.4-.07v7.58l6.5-3.75V332Zm-14.4-.08v7.58l6.5-3.75V331.9Zm-14.4-.08v7.59l6.5-3.76v-7.59Zm122.39-3.53v7.59l6.5-3.76V328.3Zm-14.4-.08v7.59l6.5-3.76v-7.58Zm-14.4-.08v7.59l6.5-3.75v-7.59Zm-14.4-.07v7.58l6.51-3.75v-7.59Zm-14.39-.08v7.58l6.5-3.75V328Zm-14.4-.08v7.58l6.5-3.75V327.9Zm-14.4-.08v7.59l6.5-3.76v-7.59Zm-14.4-.08v7.59l6.5-3.76v-7.58Zm-14.4-.08V339l6.5-3.76v-7.58Zm122.39-3.53v7.59l6.5-3.75v-7.59Zm-14.4-.07v7.58l6.5-3.75v-7.59Zm-14.4-.08v7.58l6.5-3.75V324Zm-14.4-.08v7.58l6.5-3.75V323.9Zm-14.4-.08v7.59l6.51-3.76v-7.59Zm-14.39-.08v7.59l6.5-3.76v-7.58Zm-14.4-.08V335l6.5-3.76v-7.58Zm-14.4-.08v7.59l6.5-3.75v-7.59Zm-14.4-.08v7.59l6.5-3.75v-7.59Zm122.39-3.52v7.58l6.5-3.75V320Zm-14.4-.08v7.59l6.5-3.76V319.9Zm-14.4-.08v7.59l6.5-3.76v-7.59Zm-14.4-.08v7.59l6.5-3.76v-7.58Zm-14.4-.08V331l6.51-3.75v-7.59Zm-14.39-.08v7.59l6.5-3.75v-7.59Zm-14.4-.07v7.58l6.5-3.75v-7.59Zm-14.4-.08v7.58l6.5-3.75v-7.59Zm-14.4-.08v7.59l6.5-3.76v-7.59Zm122.39-3.53v7.59l6.5-3.76v-7.58Zm-14.4-.08v7.59l6.5-3.76v-7.58Zm-14.4-.08V327l6.5-3.75v-7.59Zm-14.4-.07v7.58l6.5-3.75v-7.59Zm-14.4-.08v7.58l6.5-3.75v-7.59Zm-14.4-.08v7.58l6.51-3.75v-7.59Zm-14.39-.08v7.59l6.5-3.76v-7.59Zm-14.4-.08v7.59l6.5-3.76v-7.58ZM93.74,319v7.59l6.5-3.76V315.2Zm122.39-3.53V323l6.5-3.75v-7.59Zm-14.4-.07v7.58l6.5-3.75v-7.59Zm-14.4-.08v7.58l6.5-3.75v-7.59Zm-14.4-.08v7.58l6.5-3.75v-7.59Zm-14.4-.08v7.59l6.5-3.76v-7.58Zm-14.4-.08v7.59l6.51-3.76v-7.58ZM129.74,315v7.59l6.5-3.76V311.2Zm-14.4-.08v7.59l6.5-3.75v-7.59Zm-14.4-.08v7.59l6.5-3.75V311Zm122.38-3.52v7.58l6.51-3.75v-7.59Zm-14.39-.08v7.59l6.5-3.76v-7.59Zm-14.4-.08v7.59l6.5-3.76v-7.59Zm-14.4-.08v7.59l6.5-3.76v-7.58Zm-14.4-.08v7.59l6.5-3.76V307.2Zm-14.4-.08v7.59l6.5-3.75v-7.59Zm-14.4-.07v7.58l6.51-3.75V307Zm-14.39-.08v7.58l6.5-3.75V307Zm-14.4-.08v7.59l6.5-3.76v-7.59Zm122.38-3.53v7.59l6.51-3.76v-7.58ZM216.13,307v7.59l6.5-3.76v-7.58Zm-14.4-.08v7.59l6.5-3.75V303.2Zm-14.4-.08v7.59l6.5-3.75v-7.59Zm-14.4-.07v7.58l6.5-3.75V303Zm-14.4-.08v7.59l6.5-3.76V303Zm-14.4-.08v7.59l6.51-3.76v-7.59Zm-14.39-.08v7.59l6.5-3.76v-7.58Zm-14.4-.08v7.59l6.5-3.76v-7.58ZM237.72,303v7.59l6.5-3.75V299.2Zm-14.4-.07v7.58l6.51-3.75v-7.59Zm-14.39-.08v7.58l6.5-3.75V299Zm-14.4-.08v7.59l6.5-3.76V299Zm-14.4-.08v7.59l6.5-3.76v-7.58Zm-14.4-.08v7.59l6.5-3.76v-7.58Zm-14.4-.08v7.59l6.5-3.75v-7.59Zm-14.4-.08V310l6.51-3.75v-7.59Zm-14.39-.08v7.59l6.5-3.75v-7.59Zm122.38-3.52v7.58l6.5-3.75V295Zm-14.4-.08v7.59l6.51-3.76V295Zm-14.39-.08v7.59l6.5-3.76v-7.58Zm-14.4-.08v7.59l6.5-3.76v-7.58Zm-14.4-.08v7.59l6.5-3.75v-7.59Zm-14.4-.08V306l6.5-3.75v-7.59Zm-14.4-.07v7.58l6.5-3.75v-7.59Zm-14.4-.08v7.58l6.51-3.75v-7.59Zm-14.39-.08v7.59l6.5-3.76v-7.59Zm122.38-3.53v7.59l6.5-3.76v-7.58Zm-14.4-.08v7.59l6.5-3.75v-7.59Zm-14.4-.08v7.59l6.51-3.75v-7.59Zm-14.39-.08V302l6.5-3.75v-7.59Zm-14.4-.07v7.58l6.5-3.75v-7.59Zm-14.4-.08v7.58l6.5-3.75v-7.59Zm-14.4-.08v7.59l6.5-3.76v-7.59Zm-14.4-.08v7.59l6.5-3.76v-7.58Zm-14.4-.08v7.59l6.51-3.76v-7.58Zm122.39-3.53v7.59l6.5-3.75v-7.59Zm-14.4-.07V298l6.5-3.75v-7.59Zm-14.4-.08v7.58l6.51-3.75v-7.59Zm-14.39-.08v7.59l6.5-3.76v-7.59Zm-14.4-.08v7.59l6.5-3.76v-7.58Zm-14.4-.08v7.59l6.5-3.76v-7.58Zm-14.4-.08v7.59l6.5-3.76v-7.58Zm-14.4-.08v7.59l6.5-3.75v-7.59Zm-14.4-.08v7.59l6.51-3.75V286.1Zm122.39-3.52v7.58l6.5-3.75v-7.59Zm-14.4-.08v7.59l6.5-3.76v-7.59Zm-14.4-.08v7.59l6.5-3.76v-7.58Zm-14.4-.08v7.59l6.51-3.76v-7.58ZM208.93,286v7.59l6.5-3.75v-7.59Zm-14.4-.08v7.59l6.5-3.75v-7.59Zm-14.4-.07v7.58l6.5-3.75V282.1Zm-14.4-.08v7.58l6.5-3.75V282Zm-14.4-.08v7.59l6.5-3.76v-7.59Zm122.39-3.53v7.59l6.5-3.76v-7.58Zm-14.4-.08v7.59l6.5-3.75v-7.59Zm-14.4-.08v7.59l6.5-3.75v-7.59Zm-14.4-.07v7.58l6.51-3.75v-7.59Zm-14.39-.08v7.58l6.5-3.75V278.1Zm-14.4-.08v7.58l6.5-3.75V278Zm-14.4-.08v7.59l6.5-3.76v-7.59Zm-14.4-.08v7.59l6.5-3.76v-7.58Zm-14.4-.08v7.59l6.5-3.76v-7.58ZM280.92,278v7.58l6.5-3.75v-7.59Zm-14.4-.08v7.58l6.5-3.75v-7.59Zm-14.4-.08v7.58l6.5-3.75V274.1Zm-14.4-.08v7.59l6.5-3.76V274Zm-14.4-.08v7.59l6.51-3.76V274Zm-14.39-.08v7.59l6.5-3.76v-7.58Zm-14.4-.08v7.59l6.5-3.76v-7.58Zm-14.4-.08v7.59l6.5-3.75v-7.59Zm-14.4-.07V285l6.5-3.75v-7.59Zm122.39-3.53v7.58l6.5-3.75V270.1Zm-14.4-.08v7.59l6.5-3.76V270Zm-14.4-.08v7.59l6.5-3.76V270Zm-14.4-.08v7.59l6.5-3.76v-7.58Zm-14.4-.08v7.59l6.51-3.75v-7.59Zm-14.39-.08v7.59l6.5-3.75v-7.59Zm-14.4-.07V281l6.5-3.75v-7.59Zm-14.4-.08v7.58l6.5-3.75v-7.59Zm-14.4-.08v7.59l6.5-3.76v-7.59Zm122.39-3.53v7.59l6.5-3.76V266Zm-14.4-.08v7.59l6.5-3.75v-7.59Zm-14.4-.08v7.59l6.5-3.75v-7.59Zm-14.4-.07v7.58l6.5-3.75v-7.59Zm-14.4-.08V277l6.5-3.75v-7.59Zm-14.4-.08v7.59l6.51-3.76v-7.59Zm-14.39-.08v7.59l6.5-3.76v-7.58Zm-14.4-.08v7.59L201,273V265.4Zm-14.4-.08v7.59l6.5-3.76v-7.58Zm122.39-3.53v7.59l6.5-3.75v-7.59Zm-14.4-.07v7.58l6.5-3.75v-7.59Zm-14.4-.08V273l6.5-3.75v-7.59Zm-14.4-.08v7.59l6.5-3.76v-7.59Zm-14.4-.08v7.59l6.5-3.76v-7.58Zm-14.4-.08v7.59L237,269V261.4Zm-14.39-.08v7.59l6.5-3.76v-7.58Zm-14.4-.08v7.59l6.5-3.75v-7.59Zm-14.4-.08v7.59l6.5-3.75v-7.59Zm122.39-3.52V269l6.5-3.76v-7.59Zm-14.4-.08v7.59l6.5-3.76v-7.59Zm-14.4-.08v7.59l6.5-3.76v-7.58Zm-14.4-.08v7.59L273,265V257.4Zm-14.4-.08v7.59l6.5-3.75v-7.59Zm-14.4-.08v7.59l6.5-3.75v-7.59Zm-14.4-.07v7.58l6.51-3.75v-7.59Zm-14.39-.08v7.58l6.5-3.75v-7.59Zm-14.4-.08v7.59l6.5-3.76V257Zm122.38-3.53v7.59l6.51-3.76v-7.58Zm-14.39-.08v7.59L309,261V253.4Zm-14.4-.08v7.59l6.5-3.75v-7.59Zm-14.4-.07v7.58l6.5-3.75v-7.59Zm-14.4-.08v7.58l6.5-3.75v-7.59Zm-14.4-.08v7.59l6.5-3.76v-7.59Zm-14.4-.08v7.59l6.51-3.76V253Zm-14.39-.08v7.59l6.5-3.76v-7.58Zm-14.4-.08v7.59l6.5-3.76v-7.58Zm122.38-3.53v7.59l6.51-3.75v-7.59ZM309.72,253v7.58l6.5-3.75v-7.59Zm-14.4-.08v7.58l6.5-3.75v-7.59Zm-14.4-.08v7.59l6.5-3.76v-7.59Zm-14.4-.08v7.59l6.5-3.76V249Zm-14.4-.08v7.59l6.5-3.76v-7.58Zm-14.4-.08v7.59l6.5-3.75v-7.59Zm-14.4-.08v7.59l6.51-3.75v-7.59Zm-14.39-.08V260l6.5-3.75v-7.59Zm122.38-3.52v7.58l6.5-3.75v-7.59Zm-14.4-.08v7.59l6.51-3.76v-7.59Zm-14.39-.08v7.59l6.5-3.76V245Zm-14.4-.08v7.59l6.5-3.76v-7.58Zm-14.4-.08v7.59l6.5-3.75v-7.59Zm-14.4-.08v7.59l6.5-3.75v-7.59Zm-14.4-.07V256l6.5-3.75v-7.59Zm-14.4-.08V256L237,252.2v-7.59Zm-14.39-.08v7.59l6.5-3.76v-7.59Zm122.38-3.53v7.59l6.5-3.76V241Zm-14.4-.08v7.59l6.51-3.75v-7.59Zm-14.39-.08v7.59l6.5-3.75v-7.59Zm-14.4-.08v7.59l6.5-3.75v-7.59Zm-14.4-.07V252l6.5-3.75v-7.59Zm-14.4-.08V252l6.5-3.76v-7.59Zm-14.4-.08v7.59l6.5-3.76v-7.58Zm-14.4-.08v7.59l6.5-3.76v-7.58Zm-14.4-.08v7.59l6.51-3.75v-7.59Zm122.39-3.53v7.59l6.5-3.75v-7.59Zm-14.4-.07v7.58l6.5-3.75v-7.59Zm-14.4-.08V248l6.51-3.75v-7.59Zm-14.39-.08V248l6.5-3.76v-7.59Zm-14.4-.08v7.59l6.5-3.76v-7.58Zm-14.4-.08v7.59l6.5-3.76v-7.58Zm-14.4-.08v7.59l6.5-3.75v-7.59Zm-14.4-.08v7.59l6.5-3.75V236.3Zm-14.4-.07v7.58l6.51-3.75v-7.59Zm122.39-3.53V244l6.5-3.75v-7.59Zm-14.4-.08V244l6.5-3.76v-7.59Zm-14.4-.08v7.59l6.51-3.76v-7.58Zm-14.39-.08v7.59l6.5-3.76v-7.58Zm-14.4-.08v7.59l6.5-3.75v-7.59Zm-14.4-.08v7.59l6.5-3.75V232.3Zm-14.4-.07v7.58l6.5-3.75v-7.59Zm-14.4-.08v7.58l6.5-3.75v-7.59Zm-14.4-.08v7.59l6.5-3.76v-7.59Zm122.39-3.53v7.59l6.5-3.76v-7.58Zm-14.4-.08v7.59l6.5-3.75v-7.59Zm-14.4-.08v7.59l6.5-3.75v-7.59Zm-14.4-.07v7.58l6.51-3.75V228.3ZM302.52,232v7.58l6.5-3.75v-7.59Zm-14.4-.08v7.59l6.5-3.76v-7.59Zm-14.4-.08v7.59l6.5-3.76v-7.58Zm-14.4-.08v7.59l6.5-3.76V228Zm-14.4-.08v7.59l6.5-3.75v-7.59Zm122.39-3.53v7.59l6.5-3.75v-7.59Zm-14.4-.07v7.58l6.5-3.75V224.3Zm-14.4-.08v7.58l6.5-3.75v-7.59Zm-14.4-.08v7.59l6.51-3.76v-7.59Zm-14.39-.08v7.59l6.5-3.76v-7.58Zm-14.4-.08v7.59l6.5-3.76V224Zm-14.4-.08v7.59l6.5-3.75v-7.59Zm-14.4-.08v7.59l6.5-3.75v-7.59Zm-14.4-.08v7.59l6.5-3.75v-7.59ZM374.51,224v7.59l6.5-3.76v-7.59Zm-14.4-.08v7.59l6.5-3.76v-7.59Zm-14.4-.08v7.59l6.5-3.76v-7.58Zm-14.4-.08v7.59l6.5-3.76V220Zm-14.4-.08v7.59l6.51-3.75v-7.59Zm-14.39-.08v7.59l6.5-3.75v-7.59Zm-14.4-.07v7.58l6.5-3.75v-7.59Zm-14.4-.08V231l6.5-3.75v-7.59Zm-14.4-.08v7.59l6.5-3.76v-7.59Zm122.39-3.53v7.59l6.5-3.76v-7.58Zm-14.4-.08v7.59l6.5-3.75V216Zm-14.4-.08v7.59l6.5-3.75v-7.59Zm-14.4-.07v7.58l6.5-3.75v-7.59Zm-14.4-.08v7.58l6.51-3.75v-7.59Zm-14.39-.08V227l6.5-3.76v-7.59Zm-14.4-.08v7.59l6.5-3.76V215.6Zm-14.4-.08v7.59l6.5-3.76v-7.58Zm-14.4-.08v7.59L273,223v-7.59Zm122.39-3.53v7.59l6.5-3.75v-7.59Zm-14.4-.07v7.58l6.5-3.75v-7.59Zm-14.4-.08v7.58l6.5-3.75v-7.59Zm-14.4-.08V223l6.5-3.76v-7.59Zm-14.4-.08v7.59l6.5-3.76V211.6Zm-14.4-.08v7.59l6.51-3.76v-7.58Zm-14.39-.08v7.59L309,219v-7.59Zm-14.4-.08v7.59l6.5-3.75v-7.59Zm-14.4-.07v7.58l6.5-3.75v-7.59Zm108-3.61V219l6.5-3.76v-7.59Zm-14.4-.08v7.59l6.5-3.76V207.6Zm-14.4-.08v7.59l6.5-3.76v-7.58Zm-14.4-.08v7.59L345,215v-7.59Zm-14.4-.08v7.59l6.51-3.75v-7.59ZM309.72,211v7.58l6.5-3.75v-7.59Zm-14.4-.08v7.58l6.5-3.75V207.2Zm-14.4-.08v7.59l6.5-3.76v-7.59Zm108-3.61v7.59l6.5-3.75v-7.59Zm-14.4-.08v7.59L381,211v-7.59Zm-14.4-.07v7.58l6.5-3.75v-7.59Zm-14.4-.08v7.58l6.5-3.75v-7.59Zm-14.4-.08v7.59l6.5-3.76V203.2Zm-14.4-.08v7.59l6.51-3.76v-7.58Zm-14.39-.08v7.59l6.5-3.76v-7.58Zm-14.4-.08v7.59l6.5-3.75V203ZM381.71,203v7.58l6.5-3.75v-7.59Zm-14.4-.08v7.59l6.5-3.76V199.2Zm-14.4-.08v7.59l6.5-3.76v-7.58Zm-14.4-.08v7.59l6.5-3.76v-7.58Zm-14.4-.08v7.59l6.51-3.75V199Zm-14.39-.08v7.59l6.5-3.75v-7.59Zm-14.4-.07v7.58l6.5-3.75v-7.59Zm93.59-3.69v7.59l6.5-3.76v-7.58Zm-14.4-.08v7.59l6.5-3.76v-7.58Zm-14.4-.08v7.59l6.5-3.75V195Zm-14.4-.08v7.59l6.5-3.75v-7.59Zm-14.4-.07v7.58l6.5-3.75v-7.59Zm-14.4-.08v7.58l6.51-3.75v-7.59Zm-14.39-.08V206l6.5-3.76v-7.59Zm79.19-3.76v7.58l6.5-3.75v-7.59Zm-14.4-.08v7.58l6.5-3.75v-7.59Zm-14.4-.08v7.59l6.5-3.76v-7.59Zm-14.4-.08V202l6.5-3.76v-7.58Zm-14.4-.08v7.59l6.51-3.76v-7.58Zm-14.39-.08v7.59l6.5-3.75V190.5Zm79.19-3.76v7.59l6.5-3.76v-7.59Zm-14.4-.08V198l6.5-3.76v-7.58Zm-14.4-.08v7.59l6.5-3.76v-7.58Zm-14.4-.08v7.59l6.5-3.75V186.5Zm-14.4-.08v7.59l6.5-3.75v-7.59Zm-14.4-.07v7.58l6.51-3.75v-7.59Zm64.8-3.85v7.59l6.5-3.75V182.5Zm-14.4-.08v7.59l6.5-3.75v-7.59Zm-14.4-.07v7.58l6.5-3.75v-7.59Zm-14.4-.08v7.58l6.5-3.75v-7.59Zm-14.4-.08v7.59l6.51-3.76v-7.59Zm64.8-3.84v7.58l6.5-3.75v-7.59Zm-14.4-.08v7.59l6.5-3.76v-7.59Zm-14.4-.08v7.59l6.5-3.76v-7.58Zm-14.4-.08v7.59l6.5-3.76v-7.58Zm-14.4-.08v7.59l6.5-3.75V178Zm50.4-3.92v7.59l6.5-3.76v-7.58Zm-14.4-.08v7.59l6.5-3.75V174Zm-14.4-.08v7.59l6.5-3.75V174Zm-14.4-.08v7.59l6.5-3.75v-7.59Zm50.4-3.92v7.59l6.5-3.75V170Zm-14.4-.07v7.58l6.5-3.75v-7.59Zm-14.4-.08v7.58l6.5-3.75v-7.59Zm-14.4-.08v7.59l6.5-3.76v-7.59Zm36-4v7.59l6.5-3.76v-7.58Zm-14.4-.08V177l6.5-3.76v-7.58Zm-14.4-.08v7.59l6.5-3.75v-7.59Zm36-4v7.59l6.5-3.75v-7.59Zm-14.4-.08v7.59l6.5-3.75v-7.59Zm-14.4-.07v7.58l6.5-3.75V161.4Zm21.6-4.08v7.59l6.5-3.76v-7.59Zm-14.4-.08v7.59l6.5-3.76v-7.59Zm21.6-4.08v7.59l6.5-3.76v-7.58Zm-14.4-.08v7.59l6.5-3.75v-7.59Zm7.2-4.15v7.58l6.5-3.75v-7.59Zm7.2-4.16v7.59l6.5-3.76v-7.59Z" style="fill:#e0e0e0"></path><polygon points="396.03 131.24 57.05 326.96 57.05 339.33 396.03 143.61 396.03 131.24" style="fill:#fafafa"></polygon></g></g><g id="freepik--character-2--inject-152"><g id="freepik--character--inject-152"><g id="freepik--bottom--inject-152"><path d="M412.74,305.49c2.24,10.89,3.18,17.28-5.19,27.61S361,369.8,361,369.8s2.41,2.61,4.26,8.9c2.25,7.67,2.13,36,3.06,49.3-1,5-10.45,7.47-14,1.17,0,0-12.12-43-15.91-54.17s-4.53-13.4,2.4-22.33,34.36-38.22,33.5-46.45Z" style="fill:#ffa8a7"></path><path d="M372.55,436a8,8,0,0,1-.46,3.43c-.64,1.29-5.35,3.07-9.62,2.92s-11.59-2-15.25-1.61-7.64,1.9-13.56,1.19-11.16-2.27-11.64-5.21,25.92-3.23,37-2.54S372.55,436,372.55,436Z" style="fill:#ebebeb"></path><path d="M367.84,418.39c2.13.38,1.47,1.94,2.52,5.63s2.66,6.88,2.19,12c-1.53,2.75-7.06,4.09-13.53,3.36a57.53,57.53,0,0,0-18.84.95c-5,1.26-17-1.38-18.16-3.59a5.24,5.24,0,0,1,1.56-6.46c1.95-1.42,9.91-1.81,16.22-4.95,5.57-2.77,9.08-5.06,9.85-7.18s2.38-1.92,3.15-.18a4.64,4.64,0,0,1,0,2.86,15.62,15.62,0,0,1,3.46,1.09c.95.59,1.78,2.12,2.77,2.38s1.36-2.14,3.08-3.07,5.85-1.21,5.85-1.21Z" style="fill:#455a64"></path><path d="M332.85,427.79h0a35.37,35.37,0,0,0,6.95-2.46c5.57-2.77,9.08-5.06,9.85-7.18s2.38-1.92,3.15-.18a4.28,4.28,0,0,1,0,2.58c-1.22,2.13-2.81,3.28-6,4.83s-11.33,4.9-13.67,4.95S331.91,429,332.85,427.79Z" style="fill:#055EAF"></path><path d="M321.82,438.1c1.07,2,4.38,3.69,10.43,4.73s12.3-.5,14.4-1,5.32.39,11.39,1.5,12.24-.8,13.39-1.68a1.94,1.94,0,0,0,.66-2.19c-.64,1.29-5.35,3.07-9.62,2.92s-11.59-2-15.25-1.61-7.64,1.9-13.56,1.19c-4-.48-7.71-1.36-9.83-2.79a6.63,6.63,0,0,1-.54-4.35c.11-.87-1-2.05-1.27-2.63C321.35,432.3,320.74,436.1,321.82,438.1Z" style="fill:#263238"></path><path d="M348.13,420.21a1.81,1.81,0,0,1-.47.41,10.63,10.63,0,0,0-.78,5.48,4.68,4.68,0,0,1-1.95,1,7.86,7.86,0,0,1,.62-5A3.56,3.56,0,0,1,348.13,420.21Z" style="fill:#37474f"></path><path d="M342.55,423.91a11.5,11.5,0,0,0-.53,4s-1.2,1-2,.85c.17-1.76.17-3.39.94-4.43s2.21-1.34,2.52-.89Z" style="fill:#37474f"></path><path d="M338.31,426a11.72,11.72,0,0,0-.81,3.93s-1.27.87-2.07.7c.28-1.74.4-3.36,1.24-4.35s2.31-1.16,2.58-.69Z" style="fill:#37474f"></path><path d="M359.55,439.43c1.32-1.29,2-3.5,2.55-5.22,1.19-3.63,5.16-6.82,9.59-5.93a19.69,19.69,0,0,1,.86,7.74C371.06,438.7,365.79,440,359.55,439.43Z" style="fill:#055EAF"></path><path d="M427.43,288.13c3.82,12.12,5.15,18.92,2.15,32.28-2,9.1-8.4,34.95-8.4,34.95s5.09,4.11,9.11,13.06c3.4,7.56,5.74,16.18,9,24.79,5.05,13.3,3.38,16.78,3.38,16.78s-4.21,3.06-8.73,3.36-4.42-2.39-5.35-5c-1.5-4.19-1-6.73-4.13-11.24-8.34-12.08-17.42-23.91-22.63-31.24-4.59-6.47-6.24-8.25-4.95-23.68,1.35-16,3-38.91,3-38.91Z" style="fill:#ffa8a7"></path><path d="M444.23,412.45c.09,1.65-.89,2.88-4.83,3.63a18.81,18.81,0,0,1-12-1.93c-3.21-1.83-5-2.31-7.45-2.13s-8.37-1-10.56-2.61-3.87-4.51-3.87-6.58-.11-4.23,1.54-4.38S444.23,412.45,444.23,412.45Z" style="fill:#263238"></path><path d="M444.29,410.41c.13,1.74.15,2.09-.69,2.75s-5,2.46-10.07,1.83-7.31-3.13-10.25-3.56-7.66.75-12.62-2.08-4.43-6.44-4.48-7.44Z" style="fill:#ebebeb"></path><path d="M439.49,393.29l-.19-.08c-1.77-.69-3.62-.3-5.45,0s-4,1-5.16,2.56a15.52,15.52,0,0,0-1.25,2.39c-.09.2-.23.42-.46.44a.66.66,0,0,1-.35-.11,6.76,6.76,0,0,1-1.11-.75,4.33,4.33,0,0,0-.78-.57c-.55-.27-1,0-1.52.12-2.12.61-4.77.43-7,.43-6.94,0-7.09-.23-8.57.34s-1.86,2.58-1.34,4.45,1.37,4.56,6.66,6.45,9.12-.34,16.15,3a16.16,16.16,0,0,0,6.58,1.07c3.06-.34,6.72-1,8.56-2.68,1-4.09-1.2-8.45-2.65-11.85-.4-.95-.76-1.91-1.09-2.89a6.15,6.15,0,0,0-.85-2.23A1,1,0,0,0,439.49,393.29Z" style="fill:#455a64"></path><path d="M430.9,410.05c1.14-1.39.49-3.3,2.26-5.77s6.72-3.83,9.78-2.69c1.13,2.78,2.08,5.87,1.35,8.82-1.84,1.63-5.5,2.34-8.56,2.68a16.16,16.16,0,0,1-6.58-1.07,18.79,18.79,0,0,0-1.94-.81v0S429.86,411.3,430.9,410.05Z" style="fill:#055EAF"></path><path d="M412.75,397.7c-1.15,0-2.77.72-2.5,1a8.43,8.43,0,0,0,5.3,1.07c5.39-.4,8.48-1.93,8.92-2.66,0,0-.59-1.31-1.13-2.47-.31-.68-1.37.12-2.91,1.27S414.93,397.93,412.75,397.7Z" style="fill:#055EAF"></path><path d="M419.82,396.29a4,4,0,0,0-1.91,3.31,2.33,2.33,0,0,1-1.3.24,3.3,3.3,0,0,1,.95-2.7,3.5,3.5,0,0,1,3-1.33A2.74,2.74,0,0,1,419.82,396.29Z" style="fill:#37474f"></path><path d="M416.79,397.33a3.2,3.2,0,0,0-2.24,2.52,1.63,1.63,0,0,1-1.31-.05,3.28,3.28,0,0,1,1.93-2.44,2.4,2.4,0,0,1,2.39-.22Z" style="fill:#37474f"></path><path d="M414.32,397.7a4.09,4.09,0,0,0-2.53,1.7,1.47,1.47,0,0,1-1.07-.41,4.2,4.2,0,0,1,2.79-1.53c1.36-.25,1.82.11,1.82.11Z" style="fill:#37474f"></path><path d="M428.6,286.92c3.83,12.27,4.79,16.87,3.26,28s-6.13,28.47-6.13,28.47-4.46,3.71-13.76,5.47c-8.56,1.62-14,1.1-16-.53l.33-3.93-20,15.84s-21.74-7.27-26-21.09c6.57-9.53,14-17.58,19.77-26.17,1.95-2.9,3.49-4.91,4.36-12.14Z" style="fill:#37474f"></path><path d="M418.88,319a28.31,28.31,0,0,1-8.35,16.83c-6,6.16-9.76,6.93-9.51,9.89s4.5,4.19,8.16,3.7c-7,1-11.44.44-13.18-1l.33-3.93C411.94,332.18,417.21,326.27,418.88,319Z" style="fill:#263238"></path><path d="M421.18,355.36s-6,4.23-12.56,2.39c3.29-.14,11.84-2.8,13.69-7Z" style="fill:#f28f8f"></path><path d="M361,369.8c-2.82-3.52-9.25-5.53-12.3-5.21,7.69-1.16,12.07,1.24,14.57,3.62Z" style="fill:#f28f8f"></path></g><g id="freepik--top--inject-152"><path d="M357.15,201.3s-5.06,8-4.54,8.57,4,1.7,4,1.7Z" style="fill:#f28f8f"></path><path d="M360.52,189.07c-3,1.49-4.66,4.08-4,9.31a25.37,25.37,0,0,1-.11,7.14c-1.26,6.61,2,17,3.93,18.82,1.33,1.22,9,2.51,12.58,1.45,4.48-1.32,14.17-5.87,18.72-13,5.35-8.35,6.46-19.48.3-23.85C383.27,182.83,363.75,187.49,360.52,189.07Z" style="fill:#ffa8a7"></path><path d="M390.39,223.74l-1.08-5.8-17.7,5.5.91,4c.51,2.25,1,4.57-.4,5.64-2.49,1.93-8.5,5.42-11.27,7.63,0,0,15.17-.56,24.83-3.44s7.16-11.23,7.16-11.23C392.35,226.13,390.87,226.51,390.39,223.74Z" style="fill:#ffa8a7"></path><path d="M360.72,224.59a21.62,21.62,0,0,0,11.49,1.47l-.6-2.62a27,27,0,0,1-6.32,1.4A13.87,13.87,0,0,1,360.72,224.59Z" style="fill:#f28f8f"></path><path d="M353.79,189.9a4.61,4.61,0,0,0-.6,2.46,4,4,0,0,0,2.3,3.45,3.48,3.48,0,0,0,4-.86,4.46,4.46,0,0,0,1.57,4,3.18,3.18,0,0,0,4.06-.13c-.26.8-.43,1.88.29,2.31a1.4,1.4,0,0,0,.6.18,3.18,3.18,0,0,0,1.77-.34,2.86,2.86,0,0,0-.44,2.59c.12.28,1.79,1.91,1.84,1.69,0,0,1.2-5.32,5.67-4.79s5.27,6.22,2.56,9.77-5.35,2.32-5.39,2.3c.14.91.64,5.84,5.05,8.16,2.7,1.42,9.27,1,12.45-1.53,1-2.43,4.17-5.79,5.49-8.54,4.41-9.22,5.18-11.88,4.17-17.88-.56-3.32-2.72-6-4.46-6.4-.53-3.09-2.08-5.73-5.79-8.18-5.82-3.84-13.63-3.24-18.3-2.43a26.67,26.67,0,0,1-4.83.76c-1.42,0-2.8-.43-4.21-.5a4.33,4.33,0,0,0-3.8,1.44,4.53,4.53,0,0,0-.11,4.27,7,7,0,0,0-3.11,1.34,3.85,3.85,0,0,0-1.5,3,2.7,2.7,0,0,0,1.89,2.57A5.26,5.26,0,0,0,353.79,189.9Z" style="fill:#263238"></path><path d="M326.23,261a7.42,7.42,0,0,1,1-.65,7.82,7.82,0,0,1,1.53-.2c1.23-.21,2.12-1.24,3.16-1.93a7.94,7.94,0,0,1,3.74-1.17,21,21,0,0,1,4,.19,7.33,7.33,0,0,0,1.87.06,2.33,2.33,0,0,0,1.61-.86,2.14,2.14,0,0,0,.09-2.21,3.34,3.34,0,0,0-1.75-1.47,8.11,8.11,0,0,0-2.28-.46,25.88,25.88,0,0,0-6.81.24,16.73,16.73,0,0,0-5.26,1.75,9.25,9.25,0,0,0-3.6,3.91,4,4,0,0,0-.66,2C322.9,261.51,325.38,261.44,326.23,261Z" style="fill:#f28f8f"></path><path d="M362.28,250.68a39.24,39.24,0,0,1-13.87-1.2,56.58,56.58,0,0,0-13.16-1.12c-2.77.27-8.45,4.73-9.67,5.95s-3,4.73-4.15,6.21c.33.79,2.22,1.22,3.81-.21,1.35-1.22,2.45-3,5.16-4.2a13.27,13.27,0,0,1,8-.67c2.52.45,3.09,1,.92,2.79a32.31,32.31,0,0,1-4.48,3.12c-1.86,1.16-2.39,1.89-2.74,2.77-.64,1.6,0,2.5,2.3,1.71s4.07-1,6.77-1.84,4.07-1.81,6.32-1.92c2.86-.14,14.46.51,14.46.51Z" style="fill:#ffa8a7"></path><path d="M398.51,224.13c4.72-.54,9.52-.66,12.48,3.93,2.41,3.74,7.64,20.25,7.64,20.25Z" style="fill:#37474f"></path><path d="M360.91,240.19c3-2.21,11.64-7.57,11.64-7.57A21.87,21.87,0,0,0,385.81,231c5.85-2.71,4.82-6.31,4.82-6.31s2.77,0,7.88-.57c5.28,1.23,13.85,9.87,19,21.15,9,19.59,11.21,36.2,14.37,52.33-3.28,14.93-45.5,24.05-58.87,9.29a28.11,28.11,0,0,0,.72-15.1c-2.06-9.85-8.05-19-11.48-27.37C357.38,252.5,360.91,240.19,360.91,240.19Z" style="fill:#055EAF"></path><path d="M360.91,240.19c3-2.21,11.64-7.57,11.64-7.57A21.87,21.87,0,0,0,385.81,231c5.85-2.71,4.82-6.31,4.82-6.31s2.77,0,7.88-.57c5.28,1.23,13.85,9.87,19,21.15,9,19.59,11.21,36.2,14.37,52.33-3.28,14.93-45.5,24.05-58.87,9.29a28.11,28.11,0,0,0,.72-15.1c-2.06-9.85-8.05-19-11.48-27.37C357.38,252.5,360.91,240.19,360.91,240.19Z" style="opacity:0.25"></path><path d="M320.82,299.9a1.23,1.23,0,0,1,1.28.46,4.31,4.31,0,0,1,.77,3.83c-.2.6-.53,1-.94,1.11h0l-28.07,5.82-1-5.42Z" style="fill:#455a64"></path><path d="M323,302.48a3.89,3.89,0,0,1-.12,1.71c-.2.6-.53,1-.94,1.11h0l-28.07,5.82-.47-2.44Z" style="fill:#37474f"></path><path d="M294.06,306.25a4.29,4.29,0,0,1,.78,3.82c-.4,1.2-1.38,1.41-2.2.49a4.33,4.33,0,0,1-.78-3.83C292.26,305.54,293.24,305.33,294.06,306.25Z" style="fill:#263238"></path><path d="M293,306.71a.79.79,0,0,1,.82.3,2.73,2.73,0,0,1,.49,2.42c-.13.39-.34.66-.6.71h0l-33.81,7-.66-3.44Z" style="fill:#455a64"></path><path d="M294.41,308.35a2.57,2.57,0,0,1-.07,1.08c-.13.39-.34.66-.6.71h0l-33.81,7-.3-1.54Z" style="fill:#37474f"></path><path d="M260.06,314.06a2.75,2.75,0,0,1,.49,2.43c-.25.75-.88.89-1.4.31a2.75,2.75,0,0,1-.49-2.43C258.91,313.62,259.54,313.48,260.06,314.06Z" style="fill:#263238"></path><path d="M261.54,313.83a7.63,7.63,0,0,1,.38,3.94c-.87,5.33-7,10.66-16.51,14.24-14.3,5.42-31,5.15-38.07-.61-3.27-2.67-3.56-5.68-3.23-7.72.87-5.33,7-10.66,16.51-14.24,14.3-5.42,31-5.15,38.06.61A8.9,8.9,0,0,1,261.54,313.83Zm-53.7,12.52a5.65,5.65,0,0,0,1.77,2.28c5.94,4.85,21.75,4.87,34.53,0,8-3,13.6-7.53,14.24-11.46a4.5,4.5,0,0,0-2-4.38c-5.94-4.85-21.75-4.87-34.53,0-8,3-13.6,7.53-14.24,11.46A4,4,0,0,0,207.84,326.35Z" style="fill:#055EAF"></path><path d="M261.54,313.83a7.63,7.63,0,0,1,.38,3.94c-.87,5.33-7,10.66-16.51,14.24-14.3,5.42-31,5.15-38.07-.61-3.27-2.67-3.56-5.68-3.23-7.72.87-5.33,7-10.66,16.51-14.24,14.3-5.42,31-5.15,38.06.61A8.9,8.9,0,0,1,261.54,313.83Zm-53.7,12.52a5.65,5.65,0,0,0,1.77,2.28c5.94,4.85,21.75,4.87,34.53,0,8-3,13.6-7.53,14.24-11.46a4.5,4.5,0,0,0-2-4.38c-5.94-4.85-21.75-4.87-34.53,0-8,3-13.6,7.53-14.24,11.46A4,4,0,0,0,207.84,326.35Z" style="fill:#fff;opacity:0.2"></path><path d="M250.18,310.05l4.76,4.32-4.64,5.34-5.18-4.7,4.43-5.1q-.5-.11-1-.18l-4.07,4.68-5.18-4.69.44-.51c-.72,0-1.45.07-2.19.13l.51.45-4.59,5.29-4.79-4.35c-.81.19-1.62.4-2.41.62l-3.8,4.39-2.42-2.2-.9.4,2.73,2.48-4.57,5.27-4.53-4.09c-.24.19-.49.37-.72.56l4.66,4.21-4.82,5.56-4.21-3.82a.58.58,0,0,1,0,.14,3.84,3.84,0,0,0,0,1l3.69,3.35-.66.76c.25.15.52.3.79.44l.52-.6,1.74,1.56c.62.22,1.28.41,2,.59l-3.12-2.83,4.83-5.56,5.18,4.69-3.71,4.27c.34.05.7.1,1.07.13l3.29-3.8,4.32,3.92c.41,0,.83-.05,1.23-.09l-5-4.5,4.58-5.28,5.18,4.69-4.38,5.05c.43,0,.86-.07,1.29-.13l3.75-4.32,3.39,3.06,1-.26-3.83-3.47,4.59-5.29,5.18,4.7-2.72,3.13,1.69-.58,1.68-1.95,1,.89.9-.4-1.29-1.17,4.58-5.28,3,2.76.72-.56L251,320.31l4.62-5.34,2.75,2.48a1.87,1.87,0,0,1,0-.25,4.32,4.32,0,0,0,.05-.87l-2.25-2,.82-.94a6,6,0,0,0-.58-.53l-.08-.07-.82.95-3.43-3.1A19.54,19.54,0,0,0,250.18,310.05Zm-11.49.35,5.18,4.69-4.57,5.28-5.18-4.7Zm-15.58,5.94,4.58-5.29,5.18,4.7L228.29,321Zm0,10.65-5.18-4.69,4.59-5.29,5.18,4.7Zm11-.66-5.18-4.7,4.58-5.28,5.18,4.7Zm15.59-5.95-4.59,5.29L240,321l4.59-5.28Z" style="fill:#e0e0e0"></path><path d="M360.53,241c-6.32,4-8.4,5.74-8.82,15.43S350,288.72,350,288.72s-16,6.57-23.64,8.37c-5.13,1.22-6-.54-11.3-.24-4.43.25-5,1.22-8.11,2.75-3.93,1.94-3.48,3.87-3.48,3.87l6.42-1.32.08.14c2,3.33.26,5.58-3.57,6.22l-3,.62-2.5.54s1.71,2.9,1.81,3c.52.58,1.07,1.14,1.6,1.72,1.08,1.17,2,2.66,3.88,2.26.26-.06.51-.15.77-.19.95-.13,1.86.5,2.82.46,1.15-.05,2.07-1,3.22-1a7.49,7.49,0,0,0,3.68-1.1c1.41-.75,2.5-3.19,8.42-4.7,6.62-1.68,29.57-4.19,33.73-5.54,6.81-2.2,6.3-4.94,7.33-11.94s3.15-31.05,3.15-31.05S372,246.66,360.53,241Z" style="fill:#ffa8a7"></path><path d="M360.91,240.19c-2.5,1.64-5.57,3.52-7.1,5.83s-1.81,3-2.36,9.82-1.48,25-1.48,25,1.73,3.36,8.16,4.93c7.6,1.86,11.69.21,11.69.21s2-17.82,2.43-24.19C372.75,254.81,371.45,244.16,360.91,240.19Z" style="fill:#37474f"></path></g></g></g></svg>