<svg width="40" height="36" viewBox="0 0 40 36" fill="none" xmlns="http://www.w3.org/2000/svg">
<path d="M5 6V1.5H8.33333V6H13.3333V9H8.33333V13.5H5V9H0V6M10 15V10.5H15V6H26.6667L29.6667 9H35C36.8333 9 38.3333 10.35 38.3333 12V30C38.3333 31.65 36.8333 33 35 33H8.33333C6.5 33 5 31.65 5 30V15M21.6667 28.5C29.0833 28.5 32.8167 20.43 27.5667 15.69C22.3167 10.965 13.3333 14.325 13.3333 21C13.3333 25.14 17.0667 28.5 21.6667 28.5ZM16.3333 21C16.3333 25.275 22.0833 27.42 25.4333 24.39C28.8 21.375 26.4167 16.2 21.6667 16.2C18.7333 16.2 16.3333 18.36 16.3333 21Z" fill="black"/>
</svg>
