<svg width="189" height="104" viewBox="0 0 189 104" fill="none" xmlns="http://www.w3.org/2000/svg">
<path d="M2.0142 97H0.721591L6.15057 86.8182H7.4233L9.47159 97H8.17898L6.56818 88.429H6.48864L2.0142 97ZM3.14773 93.0227H8.35795L8.17898 94.1165H2.96875L3.14773 93.0227ZM10.4212 99.8636L12.1811 89.3636H13.3146L13.1158 90.5767H13.255C13.361 90.4441 13.5069 90.2751 13.6925 90.0696C13.8814 89.8608 14.1349 89.6752 14.4531 89.5128C14.7746 89.3471 15.1839 89.2642 15.6811 89.2642C16.3241 89.2642 16.8627 89.425 17.2969 89.7464C17.7311 90.0679 18.0376 90.5237 18.2166 91.1136C18.3956 91.7036 18.4188 92.3996 18.2862 93.2017C18.1536 94.0104 17.9001 94.7114 17.5256 95.3047C17.151 95.8946 16.6937 96.352 16.1534 96.6768C15.6132 96.9983 15.0249 97.1591 14.3885 97.1591C13.898 97.1591 13.5185 97.0779 13.25 96.9155C12.9815 96.7498 12.786 96.5625 12.6634 96.3537C12.5407 96.1416 12.4463 95.9659 12.38 95.8267H12.2805L11.6044 99.8636H10.4212ZM12.6982 93.1818C12.6054 93.7585 12.6054 94.2673 12.6982 94.7081C12.7943 95.1456 12.9848 95.4886 13.2699 95.7372C13.5582 95.9825 13.9377 96.1051 14.4084 96.1051C14.8989 96.1051 15.3281 95.9759 15.696 95.7173C16.0672 95.4555 16.3722 95.1042 16.6108 94.6634C16.8527 94.2192 17.0201 93.7254 17.1129 93.1818C17.1991 92.6449 17.1958 92.161 17.103 91.7301C17.0102 91.2959 16.8213 90.9529 16.5362 90.701C16.2512 90.4458 15.8601 90.3182 15.3629 90.3182C14.8857 90.3182 14.4631 90.4392 14.0952 90.6811C13.7306 90.9197 13.429 91.2545 13.1903 91.6854C12.955 92.1129 12.791 92.6117 12.6982 93.1818ZM22.307 86.8182L20.6167 97H19.4434L21.1337 86.8182H22.307ZM22.7656 97L24.0384 89.3636H25.2116L23.9389 97H22.7656ZM24.983 88.071C24.7543 88.071 24.5571 87.9931 24.3913 87.8374C24.2289 87.6816 24.1477 87.4943 24.1477 87.2756C24.1477 87.0568 24.2289 86.8696 24.3913 86.7138C24.5571 86.558 24.7543 86.4801 24.983 86.4801C25.2116 86.4801 25.4072 86.558 25.5696 86.7138C25.7353 86.8696 25.8182 87.0568 25.8182 87.2756C25.8182 87.4943 25.7353 87.6816 25.5696 87.8374C25.4072 87.9931 25.2116 88.071 24.983 88.071ZM27.639 94.2159L27.8578 92.7642H28.0964L32.014 89.3636H33.4657L29.3095 92.9631H29.21L27.639 94.2159ZM26.0879 97L27.7782 86.8182H28.9515L27.2612 97H26.0879ZM30.9402 97L28.5936 93.2216L29.5481 92.4062L32.4316 97H30.9402ZM35.9304 97.179C35.4465 97.179 35.0223 97.0878 34.6577 96.9055C34.2931 96.7199 34.023 96.4531 33.8473 96.1051C33.6716 95.7538 33.6236 95.3295 33.7031 94.8324C33.7794 94.3949 33.9268 94.0402 34.1456 93.7685C34.3643 93.4934 34.6295 93.2779 34.9411 93.1222C35.2559 92.9631 35.594 92.8454 35.9553 92.7692C36.3198 92.6896 36.6828 92.6283 37.044 92.5852C37.5147 92.5256 37.8975 92.4792 38.1925 92.446C38.4875 92.4129 38.7095 92.3582 38.8587 92.282C39.0078 92.2057 39.099 92.0748 39.1321 91.8892V91.8494C39.2116 91.3622 39.147 90.9827 38.9382 90.7109C38.7294 90.4358 38.3565 90.2983 37.8196 90.2983C37.2628 90.2983 36.7971 90.4209 36.4226 90.6662C36.0481 90.9115 35.7713 91.1733 35.5923 91.4517L34.5582 91.054C34.83 90.59 35.1548 90.2287 35.5327 89.9702C35.9105 89.7083 36.3066 89.526 36.7209 89.4233C37.1352 89.3172 37.5346 89.2642 37.919 89.2642C38.1643 89.2642 38.4411 89.294 38.7493 89.3537C39.0575 89.41 39.3459 89.5277 39.6143 89.7067C39.8861 89.8857 40.09 90.1558 40.2259 90.517C40.3651 90.8783 40.3849 91.3622 40.2855 91.9688L39.4503 97H38.277L38.456 95.9659H38.3963C38.2902 96.1316 38.1278 96.3089 37.9091 96.4979C37.6937 96.6868 37.4202 96.8475 37.0888 96.9801C36.7607 97.1127 36.3745 97.179 35.9304 97.179ZM36.2685 96.125C36.7325 96.125 37.1385 96.0339 37.4865 95.8516C37.8378 95.6693 38.1196 95.4339 38.3317 95.1456C38.5471 94.8572 38.6813 94.554 38.7344 94.2358L38.9134 93.1619C38.8537 93.2216 38.736 93.2763 38.5604 93.326C38.3847 93.3724 38.1858 93.4138 37.9638 93.4503C37.745 93.4834 37.5313 93.5133 37.3224 93.5398C37.117 93.563 36.9512 93.5829 36.8253 93.5994C36.5137 93.6392 36.2171 93.7038 35.9354 93.7933C35.657 93.8795 35.4216 94.0104 35.2294 94.1861C35.0405 94.3584 34.9228 94.5937 34.8764 94.892C34.8068 95.2997 34.9046 95.608 35.1697 95.8168C35.4349 96.0223 35.8011 96.125 36.2685 96.125ZM47.9952 91.0739L46.8816 91.3722C46.8418 91.1932 46.7722 91.0208 46.6728 90.8551C46.5766 90.6861 46.4275 90.5485 46.2253 90.4425C46.0265 90.3331 45.7547 90.2784 45.41 90.2784C44.9426 90.2784 44.5366 90.3861 44.1919 90.6016C43.8472 90.8137 43.65 91.0838 43.6003 91.4119C43.5506 91.7003 43.6169 91.9306 43.7992 92.103C43.9815 92.2753 44.2864 92.4162 44.714 92.5256L45.8077 92.804C46.464 92.973 46.9313 93.2266 47.2097 93.5646C47.4914 93.8994 47.5875 94.3352 47.498 94.8722C47.4251 95.3097 47.2346 95.7008 46.9263 96.0455C46.6181 96.3902 46.2237 96.6619 45.7431 96.8608C45.2625 97.0597 44.7272 97.1591 44.1373 97.1591C43.3517 97.1591 42.7319 96.9901 42.2779 96.652C41.8238 96.3106 41.5819 95.8168 41.552 95.1705L42.7253 94.892C42.7551 95.2997 42.901 95.608 43.1628 95.8168C43.428 96.0223 43.7992 96.125 44.2765 96.125C44.8233 96.125 45.2791 96.009 45.6436 95.777C46.0082 95.5417 46.2154 95.2599 46.2651 94.9318C46.3148 94.6634 46.2618 94.4396 46.106 94.2607C45.9535 94.0817 45.6884 93.9474 45.3105 93.858L44.0975 93.5597C43.4213 93.3906 42.9474 93.1321 42.6756 92.7841C42.4071 92.4361 42.3176 91.9986 42.4071 91.4716C42.4801 91.0407 42.6657 90.6596 42.964 90.3281C43.2656 89.9967 43.6434 89.7365 44.0975 89.5476C44.5549 89.3587 45.052 89.2642 45.589 89.2642C46.3446 89.2642 46.9097 89.4299 47.2843 89.7614C47.6588 90.0895 47.8958 90.527 47.9952 91.0739ZM48.9062 97L50.179 89.3636H51.3523L50.0795 97H48.9062ZM51.1236 88.071C50.8949 88.071 50.6977 87.9931 50.532 87.8374C50.3696 87.6816 50.2884 87.4943 50.2884 87.2756C50.2884 87.0568 50.3696 86.8696 50.532 86.7138C50.6977 86.558 50.8949 86.4801 51.1236 86.4801C51.3523 86.4801 51.5478 86.558 51.7102 86.7138C51.8759 86.8696 51.9588 87.0568 51.9588 87.2756C51.9588 87.4943 51.8759 87.6816 51.7102 87.8374C51.5478 87.9931 51.3523 88.071 51.1236 88.071ZM58.0154 86.8182H59.487L61.5552 95.2699H61.6745L66.5268 86.8182H67.9984L66.3081 97H65.1547L66.4473 89.2642H66.3478L61.8734 97H60.7598L58.8706 89.2642H58.7711L57.4785 97H56.3251L58.0154 86.8182ZM71.8029 97.1591C71.0704 97.1591 70.4656 96.9967 69.9883 96.6719C69.511 96.3438 69.1779 95.8864 68.989 95.2997C68.8001 94.7098 68.7702 94.0237 68.8995 93.2415C69.0288 92.4593 69.2856 91.7699 69.6701 91.1733C70.0546 90.5734 70.5335 90.1061 71.1069 89.7713C71.6803 89.4332 72.31 89.2642 72.9961 89.2642C73.3938 89.2642 73.7766 89.3305 74.1445 89.4631C74.5124 89.5956 74.8306 89.8111 75.0991 90.1094C75.3675 90.4044 75.5548 90.7955 75.6609 91.2827C75.7669 91.7699 75.7603 92.3698 75.641 93.0824L75.5614 93.5795H69.6751L69.8342 92.5653H74.5273C74.6036 92.1345 74.5837 91.75 74.4677 91.4119C74.355 91.0739 74.1578 90.8071 73.8761 90.6115C73.5977 90.416 73.2447 90.3182 72.8171 90.3182C72.3763 90.3182 71.9653 90.4375 71.5842 90.6761C71.203 90.9115 70.8848 91.2098 70.6296 91.571C70.3744 91.929 70.2153 92.2936 70.1523 92.6648L70.0131 93.5398C69.9137 94.1728 69.9286 94.6766 70.0579 95.0511C70.1905 95.4257 70.4208 95.6958 70.7489 95.8615C71.0771 96.0239 71.488 96.1051 71.9819 96.1051C72.2968 96.1051 72.5868 96.062 72.8519 95.9759C73.1171 95.8864 73.354 95.7538 73.5629 95.5781C73.7717 95.3991 73.9473 95.1771 74.0898 94.9119L75.1637 95.2301C74.9814 95.6146 74.7246 95.9527 74.3931 96.2443C74.065 96.5327 73.6805 96.758 73.2397 96.9205C72.8022 97.0795 72.3233 97.1591 71.8029 97.1591ZM78.7259 92.4062L77.9702 97H76.7969L78.0696 89.3636H79.2031L79.0043 90.5568H79.1037C79.3423 90.169 79.6655 89.8575 80.0732 89.6222C80.4808 89.3835 80.973 89.2642 81.5497 89.2642C82.0601 89.2642 82.491 89.3703 82.8423 89.5824C83.197 89.7912 83.4472 90.1094 83.593 90.5369C83.7422 90.9612 83.7637 91.4981 83.6577 92.1477L82.8423 97H81.669L82.4645 92.2273C82.5639 91.6307 82.486 91.1634 82.2308 90.8253C81.9789 90.4872 81.5795 90.3182 81.0327 90.3182C80.6548 90.3182 80.3052 90.3994 79.9837 90.5618C79.6655 90.7242 79.3954 90.9612 79.1733 91.2727C78.9545 91.5843 78.8054 91.9621 78.7259 92.4062ZM85.0012 99.8636C84.8024 99.8636 84.6267 99.8471 84.4743 99.8139C84.3251 99.7841 84.2224 99.7543 84.166 99.7244L84.6433 98.6903C84.9151 98.7633 85.157 98.7848 85.3691 98.755C85.5846 98.7285 85.7884 98.6241 85.9806 98.4418C86.1762 98.2628 86.38 97.9811 86.5922 97.5966L86.9203 97L85.389 89.3636H86.612L87.7058 95.4688H87.7853L90.9075 89.3636H92.2299L87.5467 98.1037C87.3279 98.5114 87.0877 98.8445 86.8258 99.103C86.564 99.3615 86.2806 99.5521 85.9757 99.6747C85.6708 99.8007 85.3459 99.8636 85.0012 99.8636ZM95.4142 97.1591C94.6818 97.1591 94.0769 96.9967 93.5996 96.6719C93.1223 96.3438 92.7892 95.8864 92.6003 95.2997C92.4114 94.7098 92.3816 94.0237 92.5108 93.2415C92.6401 92.4593 92.897 91.7699 93.2814 91.1733C93.6659 90.5734 94.1448 90.1061 94.7182 89.7713C95.2916 89.4332 95.9213 89.2642 96.6074 89.2642C97.0051 89.2642 97.388 89.3305 97.7559 89.4631C98.1238 89.5956 98.4419 89.8111 98.7104 90.1094C98.9789 90.4044 99.1661 90.7955 99.2722 91.2827C99.3783 91.7699 99.3716 92.3698 99.2523 93.0824L99.1728 93.5795H93.2864L93.4455 92.5653H98.1387C98.2149 92.1345 98.195 91.75 98.079 91.4119C97.9663 91.0739 97.7691 90.8071 97.4874 90.6115C97.209 90.416 96.856 90.3182 96.4284 90.3182C95.9876 90.3182 95.5766 90.4375 95.1955 90.6761C94.8143 90.9115 94.4962 91.2098 94.2409 91.571C93.9857 91.929 93.8266 92.2936 93.7637 92.6648L93.6245 93.5398C93.525 94.1728 93.54 94.6766 93.6692 95.0511C93.8018 95.4257 94.0321 95.6958 94.3603 95.8615C94.6884 96.0239 95.0994 96.1051 95.5932 96.1051C95.9081 96.1051 96.1981 96.062 96.4632 95.9759C96.7284 95.8864 96.9654 95.7538 97.1742 95.5781C97.383 95.3991 97.5587 95.1771 97.7012 94.9119L98.775 95.2301C98.5927 95.6146 98.3359 95.9527 98.0044 96.2443C97.6763 96.5327 97.2918 96.758 96.851 96.9205C96.4135 97.0795 95.9346 97.1591 95.4142 97.1591ZM102.138 97L101.084 89.3636H102.317L102.993 95.2102H103.073L105.678 89.3636H106.931L107.567 95.1903H107.647L110.272 89.3636H111.505L107.905 97H106.752L106.056 91.1335H105.937L103.292 97H102.138ZM114.01 97.179C113.527 97.179 113.102 97.0878 112.738 96.9055C112.373 96.7199 112.103 96.4531 111.927 96.1051C111.752 95.7538 111.704 95.3295 111.783 94.8324C111.859 94.3949 112.007 94.0402 112.226 93.7685C112.444 93.4934 112.71 93.2779 113.021 93.1222C113.336 92.9631 113.674 92.8454 114.035 92.7692C114.4 92.6896 114.763 92.6283 115.124 92.5852C115.595 92.5256 115.978 92.4792 116.273 92.446C116.568 92.4129 116.79 92.3582 116.939 92.282C117.088 92.2057 117.179 92.0748 117.212 91.8892V91.8494C117.292 91.3622 117.227 90.9827 117.018 90.7109C116.809 90.4358 116.437 90.2983 115.9 90.2983C115.343 90.2983 114.877 90.4209 114.503 90.6662C114.128 90.9115 113.851 91.1733 113.672 91.4517L112.638 91.054C112.91 90.59 113.235 90.2287 113.613 89.9702C113.991 89.7083 114.387 89.526 114.801 89.4233C115.215 89.3172 115.615 89.2642 115.999 89.2642C116.244 89.2642 116.521 89.294 116.829 89.3537C117.138 89.41 117.426 89.5277 117.694 89.7067C117.966 89.8857 118.17 90.1558 118.306 90.517C118.445 90.8783 118.465 91.3622 118.366 91.9688L117.53 97H116.357L116.536 95.9659H116.476C116.37 96.1316 116.208 96.3089 115.989 96.4979C115.774 96.6868 115.5 96.8475 115.169 96.9801C114.841 97.1127 114.455 97.179 114.01 97.179ZM114.349 96.125C114.813 96.125 115.219 96.0339 115.567 95.8516C115.918 95.6693 116.2 95.4339 116.412 95.1456C116.627 94.8572 116.761 94.554 116.814 94.2358L116.993 93.1619C116.934 93.2216 116.816 93.2763 116.64 93.326C116.465 93.3724 116.266 93.4138 116.044 93.4503C115.825 93.4834 115.611 93.5133 115.403 93.5398C115.197 93.563 115.031 93.5829 114.905 93.5994C114.594 93.6392 114.297 93.7038 114.015 93.7933C113.737 93.8795 113.502 94.0104 113.309 94.1861C113.121 94.3584 113.003 94.5937 112.956 94.892C112.887 95.2997 112.985 95.608 113.25 95.8168C113.515 96.0223 113.881 96.125 114.349 96.125ZM123.768 97L125.459 86.8182H126.692L125.18 95.9062H129.913L129.734 97H123.768ZM133.712 97.179C133.228 97.179 132.804 97.0878 132.439 96.9055C132.074 96.7199 131.804 96.4531 131.629 96.1051C131.453 95.7538 131.405 95.3295 131.484 94.8324C131.561 94.3949 131.708 94.0402 131.927 93.7685C132.146 93.4934 132.411 93.2779 132.722 93.1222C133.037 92.9631 133.375 92.8454 133.737 92.7692C134.101 92.6896 134.464 92.6283 134.825 92.5852C135.296 92.5256 135.679 92.4792 135.974 92.446C136.269 92.4129 136.491 92.3582 136.64 92.282C136.789 92.2057 136.88 92.0748 136.913 91.8892V91.8494C136.993 91.3622 136.928 90.9827 136.719 90.7109C136.511 90.4358 136.138 90.2983 135.601 90.2983C135.044 90.2983 134.578 90.4209 134.204 90.6662C133.829 90.9115 133.553 91.1733 133.374 91.4517L132.339 91.054C132.611 90.59 132.936 90.2287 133.314 89.9702C133.692 89.7083 134.088 89.526 134.502 89.4233C134.916 89.3172 135.316 89.2642 135.7 89.2642C135.946 89.2642 136.222 89.294 136.531 89.3537C136.839 89.41 137.127 89.5277 137.396 89.7067C137.667 89.8857 137.871 90.1558 138.007 90.517C138.146 90.8783 138.166 91.3622 138.067 91.9688L137.232 97H136.058L136.237 95.9659H136.178C136.071 96.1316 135.909 96.3089 135.69 96.4979C135.475 96.6868 135.201 96.8475 134.87 96.9801C134.542 97.1127 134.156 97.179 133.712 97.179ZM134.05 96.125C134.514 96.125 134.92 96.0339 135.268 95.8516C135.619 95.6693 135.901 95.4339 136.113 95.1456C136.328 94.8572 136.463 94.554 136.516 94.2358L136.695 93.1619C136.635 93.2216 136.517 93.2763 136.342 93.326C136.166 93.3724 135.967 93.4138 135.745 93.4503C135.526 93.4834 135.313 93.5133 135.104 93.5398C134.898 93.563 134.732 93.5829 134.607 93.5994C134.295 93.6392 133.998 93.7038 133.717 93.7933C133.438 93.8795 133.203 94.0104 133.011 94.1861C132.822 94.3584 132.704 94.5937 132.658 94.892C132.588 95.2997 132.686 95.608 132.951 95.8168C133.216 96.0223 133.582 96.125 134.05 96.125ZM138.896 99.8636L140.656 89.3636H141.789L141.59 90.5767H141.73C141.836 90.4441 141.981 90.2751 142.167 90.0696C142.356 89.8608 142.61 89.6752 142.928 89.5128C143.249 89.3471 143.659 89.2642 144.156 89.2642C144.799 89.2642 145.337 89.425 145.771 89.7464C146.206 90.0679 146.512 90.5237 146.691 91.1136C146.87 91.7036 146.893 92.3996 146.761 93.2017C146.628 94.0104 146.375 94.7114 146 95.3047C145.626 95.8946 145.168 96.352 144.628 96.6768C144.088 96.9983 143.499 97.1591 142.863 97.1591C142.373 97.1591 141.993 97.0779 141.725 96.9155C141.456 96.7498 141.261 96.5625 141.138 96.3537C141.015 96.1416 140.921 95.9659 140.855 95.8267H140.755L140.079 99.8636H138.896ZM141.173 93.1818C141.08 93.7585 141.08 94.2673 141.173 94.7081C141.269 95.1456 141.459 95.4886 141.744 95.7372C142.033 95.9825 142.412 96.1051 142.883 96.1051C143.374 96.1051 143.803 95.9759 144.171 95.7173C144.542 95.4555 144.847 95.1042 145.085 94.6634C145.327 94.2192 145.495 93.7254 145.588 93.1818C145.674 92.6449 145.67 92.161 145.578 91.7301C145.485 91.2959 145.296 90.9529 145.011 90.701C144.726 90.4458 144.335 90.3182 143.838 90.3182C143.36 90.3182 142.938 90.4392 142.57 90.6811C142.205 90.9197 141.904 91.2545 141.665 91.6854C141.43 92.1129 141.266 92.6117 141.173 93.1818ZM150.145 97.179C149.661 97.179 149.237 97.0878 148.873 96.9055C148.508 96.7199 148.238 96.4531 148.062 96.1051C147.886 95.7538 147.838 95.3295 147.918 94.8324C147.994 94.3949 148.142 94.0402 148.36 93.7685C148.579 93.4934 148.844 93.2779 149.156 93.1222C149.471 92.9631 149.809 92.8454 150.17 92.7692C150.535 92.6896 150.898 92.6283 151.259 92.5852C151.73 92.5256 152.112 92.4792 152.407 92.446C152.702 92.4129 152.924 92.3582 153.074 92.282C153.223 92.2057 153.314 92.0748 153.347 91.8892V91.8494C153.426 91.3622 153.362 90.9827 153.153 90.7109C152.944 90.4358 152.571 90.2983 152.034 90.2983C151.478 90.2983 151.012 90.4209 150.637 90.6662C150.263 90.9115 149.986 91.1733 149.807 91.4517L148.773 91.054C149.045 90.59 149.37 90.2287 149.748 89.9702C150.125 89.7083 150.521 89.526 150.936 89.4233C151.35 89.3172 151.749 89.2642 152.134 89.2642C152.379 89.2642 152.656 89.294 152.964 89.3537C153.272 89.41 153.561 89.5277 153.829 89.7067C154.101 89.8857 154.305 90.1558 154.441 90.517C154.58 90.8783 154.6 91.3622 154.5 91.9688L153.665 97H152.492L152.671 95.9659H152.611C152.505 96.1316 152.343 96.3089 152.124 96.4979C151.908 96.6868 151.635 96.8475 151.304 96.9801C150.975 97.1127 150.589 97.179 150.145 97.179ZM150.483 96.125C150.947 96.125 151.353 96.0339 151.701 95.8516C152.053 95.6693 152.334 95.4339 152.547 95.1456C152.762 94.8572 152.896 94.554 152.949 94.2358L153.128 93.1619C153.069 93.2216 152.951 93.2763 152.775 93.326C152.6 93.3724 152.401 93.4138 152.179 93.4503C151.96 93.4834 151.746 93.5133 151.537 93.5398C151.332 93.563 151.166 93.5829 151.04 93.5994C150.729 93.6392 150.432 93.7038 150.15 93.7933C149.872 93.8795 149.636 94.0104 149.444 94.1861C149.255 94.3584 149.138 94.5937 149.091 94.892C149.022 95.2997 149.119 95.608 149.385 95.8168C149.65 96.0223 150.016 96.125 150.483 96.125ZM157.736 92.4062L156.98 97H155.807L157.079 89.3636H158.213L158.014 90.5568H158.113C158.352 90.169 158.675 89.8575 159.083 89.6222C159.491 89.3835 159.983 89.2642 160.559 89.2642C161.07 89.2642 161.501 89.3703 161.852 89.5824C162.207 89.7912 162.457 90.1094 162.603 90.5369C162.752 90.9612 162.773 91.4981 162.667 92.1477L161.852 97H160.679L161.474 92.2273C161.574 91.6307 161.496 91.1634 161.241 90.8253C160.989 90.4872 160.589 90.3182 160.042 90.3182C159.665 90.3182 159.315 90.3994 158.993 90.5618C158.675 90.7242 158.405 90.9612 158.183 91.2727C157.964 91.5843 157.815 91.9621 157.736 92.4062ZM166.601 100.023C166.031 100.023 165.554 99.9498 165.169 99.804C164.785 99.6615 164.477 99.4725 164.245 99.2372C164.013 99.0052 163.837 98.7566 163.718 98.4915L164.772 97.8352C164.851 97.9744 164.954 98.1335 165.08 98.3125C165.206 98.4948 165.396 98.6522 165.652 98.7848C165.91 98.9207 166.273 98.9886 166.74 98.9886C167.354 98.9886 167.891 98.8395 168.351 98.5412C168.812 98.2429 169.097 97.7756 169.206 97.1392L169.445 95.5881H169.346C169.239 95.7273 169.092 95.8996 168.903 96.1051C168.714 96.3073 168.461 96.4879 168.142 96.647C167.824 96.8028 167.417 96.8807 166.919 96.8807C166.3 96.8807 165.769 96.7348 165.328 96.4432C164.888 96.1515 164.571 95.7273 164.379 95.1705C164.19 94.6136 164.162 93.9375 164.294 93.142C164.424 92.3598 164.672 91.6787 165.04 91.0987C165.411 90.5154 165.869 90.0646 166.412 89.7464C166.956 89.425 167.549 89.2642 168.192 89.2642C168.689 89.2642 169.07 89.3471 169.336 89.5128C169.604 89.6752 169.8 89.8608 169.922 90.0696C170.045 90.2751 170.138 90.4441 170.201 90.5767H170.32L170.519 89.3636H171.652L170.36 97.2188C170.25 97.875 170.013 98.4086 169.649 98.8196C169.284 99.2339 168.837 99.5372 168.306 99.7294C167.776 99.925 167.208 100.023 166.601 100.023ZM167.218 95.8267C167.685 95.8267 168.101 95.719 168.466 95.5036C168.833 95.2881 169.138 94.9782 169.38 94.5739C169.622 94.1695 169.79 93.6856 169.882 93.1222C169.975 92.572 169.969 92.0864 169.863 91.6655C169.757 91.2446 169.556 90.9148 169.261 90.6761C168.969 90.4375 168.587 90.3182 168.113 90.3182C167.612 90.3182 167.18 90.4441 166.815 90.696C166.454 90.9479 166.16 91.286 165.935 91.7102C165.71 92.1345 165.554 92.6051 165.468 93.1222C165.382 93.6525 165.385 94.1214 165.478 94.5291C165.57 94.9335 165.759 95.2517 166.044 95.4837C166.333 95.7124 166.724 95.8267 167.218 95.8267ZM174.755 97.179C174.271 97.179 173.846 97.0878 173.482 96.9055C173.117 96.7199 172.847 96.4531 172.672 96.1051C172.496 95.7538 172.448 95.3295 172.527 94.8324C172.604 94.3949 172.751 94.0402 172.97 93.7685C173.189 93.4934 173.454 93.2779 173.765 93.1222C174.08 92.9631 174.418 92.8454 174.779 92.7692C175.144 92.6896 175.507 92.6283 175.868 92.5852C176.339 92.5256 176.722 92.4792 177.017 92.446C177.312 92.4129 177.534 92.3582 177.683 92.282C177.832 92.2057 177.923 92.0748 177.956 91.8892V91.8494C178.036 91.3622 177.971 90.9827 177.762 90.7109C177.554 90.4358 177.181 90.2983 176.644 90.2983C176.087 90.2983 175.621 90.4209 175.247 90.6662C174.872 90.9115 174.596 91.1733 174.417 91.4517L173.382 91.054C173.654 90.59 173.979 90.2287 174.357 89.9702C174.735 89.7083 175.131 89.526 175.545 89.4233C175.959 89.3172 176.359 89.2642 176.743 89.2642C176.989 89.2642 177.265 89.294 177.574 89.3537C177.882 89.41 178.17 89.5277 178.439 89.7067C178.71 89.8857 178.914 90.1558 179.05 90.517C179.189 90.8783 179.209 91.3622 179.11 91.9688L178.275 97H177.101L177.28 95.9659H177.221C177.114 96.1316 176.952 96.3089 176.733 96.4979C176.518 96.6868 176.244 96.8475 175.913 96.9801C175.585 97.1127 175.199 97.179 174.755 97.179ZM175.093 96.125C175.557 96.125 175.963 96.0339 176.311 95.8516C176.662 95.6693 176.944 95.4339 177.156 95.1456C177.371 94.8572 177.506 94.554 177.559 94.2358L177.738 93.1619C177.678 93.2216 177.56 93.2763 177.385 93.326C177.209 93.3724 177.01 93.4138 176.788 93.4503C176.569 93.4834 176.355 93.5133 176.147 93.5398C175.941 93.563 175.775 93.5829 175.65 93.5994C175.338 93.6392 175.041 93.7038 174.76 93.7933C174.481 93.8795 174.246 94.0104 174.054 94.1861C173.865 94.3584 173.747 94.5937 173.701 94.892C173.631 95.2997 173.729 95.608 173.994 95.8168C174.259 96.0223 174.625 96.125 175.093 96.125ZM182.345 92.4062L181.589 97H180.416L181.689 89.3636H182.822L182.623 90.5568H182.723C182.961 90.169 183.285 89.8575 183.692 89.6222C184.1 89.3835 184.592 89.2642 185.169 89.2642C185.679 89.2642 186.11 89.3703 186.461 89.5824C186.816 89.7912 187.066 90.1094 187.212 90.5369C187.361 90.9612 187.383 91.4981 187.277 92.1477L186.461 97H185.288L186.084 92.2273C186.183 91.6307 186.105 91.1634 185.85 90.8253C185.598 90.4872 185.199 90.3182 184.652 90.3182C184.274 90.3182 183.924 90.3994 183.603 90.5618C183.285 90.7242 183.015 90.9612 182.792 91.2727C182.574 91.5843 182.425 91.9621 182.345 92.4062Z" fill="#C4C4C4"/>
<path d="M62.1252 46.7525C62.1252 45.8364 63.1722 45.0948 65.266 44.5277C67.3599 43.9606 69.6283 43.6771 72.0712 43.6771C74.514 43.6771 76.368 44.6586 77.6331 46.6216C78.9417 48.5846 79.5961 50.7657 79.5961 53.165C79.5961 55.5642 78.5709 59.7084 76.5207 65.5974C74.514 71.4429 72.7691 74.3656 71.286 74.3656C70.6752 74.3656 70.1518 74.1693 69.7155 73.7767C69.3229 73.4277 69.1266 72.9697 69.1266 72.4026C69.1266 69.2617 69.9991 64.7686 71.744 58.9232C69.6937 61.5405 67.4472 63.6562 65.0043 65.2703C62.6051 66.8843 60.1186 67.6913 57.5448 67.6913C55.0147 67.6913 52.3537 66.5789 49.5619 64.3542C46.77 62.1294 45.3741 59.6866 45.3741 57.0256C45.3741 52.3143 46.77 47.1014 49.5619 41.3869C52.3537 35.6287 55.8872 30.7211 60.1622 26.6642C64.4372 22.6073 68.4723 20.5789 72.2675 20.5789C73.5762 20.5789 74.9285 21.604 76.3244 23.6543C77.7639 25.7045 78.4837 27.5803 78.4837 29.2816C78.4837 30.0668 78.2002 30.4594 77.6331 30.4594C77.5458 30.4594 77.1314 30.3721 76.3898 30.1977C75.6482 30.0232 74.7322 29.9359 73.6416 29.9359C70.7189 29.9359 67.7307 31.4409 64.6771 34.4509C61.6235 37.4172 59.1371 41.0815 57.2177 45.4438C55.2983 49.806 54.3386 53.9066 54.3386 57.7454C54.3386 58.8795 55.0802 59.4466 56.5633 59.4466C58.6136 59.4466 61.1219 58.5306 64.0882 56.6984C67.0982 54.8663 69.4102 52.816 71.0242 50.5476C70.0645 50.5912 68.8867 50.6131 67.4908 50.6131C66.1385 50.6131 64.8952 50.1986 63.7611 49.3698C62.6705 48.541 62.1252 47.6685 62.1252 46.7525Z" fill="url(#paint0_linear_58_71)"/>
<path d="M89.857 64.9777C91.1272 64.4132 92.2327 63.2724 93.1736 61.5553C94.1145 59.8382 94.5849 58.2269 94.5849 56.7215C94.5849 55.2161 94.3732 54.1811 93.9498 53.6166C92.9384 54.2047 91.9269 55.4396 90.9155 57.3213C89.9275 59.2031 89.4336 60.8614 89.4336 62.2962C89.4336 63.7075 89.5747 64.6014 89.857 64.9777ZM84.7057 62.6491C84.7057 59.7088 85.6113 56.9214 87.4225 54.287C89.2572 51.6525 91.0684 50.3353 92.856 50.3353C94.6437 50.3353 96.1491 50.9704 97.3723 52.2406C98.5954 53.4872 99.207 55.0044 99.207 56.7921C99.207 58.5562 98.7836 60.3557 97.9368 62.1904C97.09 64.0251 95.9021 65.554 94.3732 66.7772C92.8443 67.9768 91.2095 68.5766 89.4689 68.5766C88.1752 68.5766 87.0579 68.0003 86.117 66.8477C85.1761 65.6952 84.7057 64.2956 84.7057 62.6491ZM101.326 56.3334L101.114 52.3464C101.114 51.0292 101.526 50.3706 102.349 50.3706C102.82 50.3706 103.278 50.547 103.725 50.8998C104.196 51.2526 104.548 51.8054 104.784 52.5581C105.583 51.8525 106.454 51.2879 107.395 50.8645C108.359 50.4176 109.206 50.1942 109.935 50.1942C111.652 50.1942 112.511 50.6058 112.511 51.4291C112.511 51.8525 112.428 52.17 112.264 52.3817C112.122 52.5699 112.005 52.711 111.911 52.8051C111.84 52.8992 111.699 53.0286 111.487 53.1932C111.299 53.3343 111.158 53.4402 111.064 53.5108C110.523 53.8636 110.135 54.1106 109.9 54.2517C108.841 54.9103 107.936 55.7101 107.183 56.6509C106.43 57.5683 105.866 58.8503 105.489 60.4968C104.854 63.2018 104.231 65.2247 103.619 66.5655C103.031 67.8827 102.361 68.5413 101.608 68.5413C100.879 68.5413 100.326 68.1885 99.9499 67.4828C99.597 66.7772 99.4206 66.1186 99.4206 65.507C99.4206 64.8719 99.6441 63.931 100.091 62.6843C100.561 61.4377 100.879 60.3674 101.044 59.4736C101.232 58.5562 101.326 57.5095 101.326 56.3334ZM113.897 68.5413H113.827C113.309 68.5413 112.662 68.0709 111.886 67.13C111.11 66.1656 110.722 65.3306 110.722 64.6249C110.722 63.8957 111.404 60.6732 112.768 54.9574C114.156 49.2415 114.85 45.6309 114.85 44.1255C114.85 43.1846 115.191 42.7142 115.873 42.7142C116.438 42.7142 117.12 43.2787 117.92 44.4077C118.719 45.5133 119.119 46.5718 119.119 47.5832C119.119 48.1948 118.813 49.759 118.202 52.2758C120.131 49.712 121.942 47.5714 123.636 45.8543C125.329 44.1137 126.482 43.2434 127.093 43.2434C127.728 43.2434 128.363 43.5139 128.999 44.0549C129.634 44.5724 129.951 45.0311 129.951 45.4309C129.951 45.8073 129.351 46.56 128.152 47.6891C126.952 48.8181 125.47 50.253 123.706 51.9936C121.942 53.7342 120.578 55.3572 119.613 56.8626C119.613 58.6738 120.66 60.4968 122.753 62.3315C123.389 62.8725 124.235 63.437 125.294 64.0251C126.352 64.5896 127.176 65.0836 127.764 65.507C128.375 65.9069 128.681 66.3185 128.681 66.7419C128.681 67.9415 127.834 68.5413 126.141 68.5413C124.447 68.5413 122.624 67.8592 120.672 66.4949C118.719 65.1071 117.261 63.2724 116.297 60.9908C115.685 62.7314 115.309 64.0016 115.168 64.8013C115.026 65.5775 114.921 66.095 114.85 66.3538C114.803 66.6125 114.756 66.8242 114.709 66.9889C114.662 67.13 114.615 67.2947 114.568 67.4828C114.521 67.671 114.474 67.8239 114.427 67.9415C114.38 68.0356 114.333 68.1297 114.286 68.2238C114.144 68.4355 114.015 68.5413 113.897 68.5413ZM142.602 51.2526C142.791 50.6646 143.167 50.3706 143.731 50.3706C144.296 50.3706 144.943 50.8528 145.672 51.8172C146.425 52.7816 146.801 53.6166 146.801 54.3223C146.801 54.581 146.26 56.3099 145.178 59.5089C144.096 62.7079 143.261 65.2365 142.673 67.0947C142.344 68.0826 141.791 68.5766 141.015 68.5766C140.544 68.5766 140.144 68.4119 139.815 68.0826C139.509 67.7298 139.356 67.1888 139.356 66.4596C139.356 65.7304 139.497 64.6955 139.78 63.3547C137.357 66.836 135.428 68.5766 133.993 68.5766C133.241 68.5766 132.335 68.0944 131.276 67.13C130.218 66.1421 129.689 65.1894 129.689 64.2721C129.689 62.014 130.324 59.1325 131.594 55.6277C132.888 52.123 134.099 50.3706 135.228 50.3706C135.91 50.3706 136.51 50.6764 137.028 51.2879C137.569 51.8995 137.839 52.5699 137.839 53.2991C137.839 53.5813 137.545 54.3693 136.957 55.663C135.169 59.5442 134.276 62.2845 134.276 63.884C134.276 64.0251 134.334 64.0957 134.452 64.0957C134.805 64.0957 135.463 63.5429 136.428 62.4374C137.416 61.3083 138.51 59.7088 139.709 57.6389C140.932 55.5454 141.897 53.4167 142.602 51.2526Z" fill="#5B5B5B"/>
<defs>
<linearGradient id="paint0_linear_58_71" x1="44" y1="10.7302" x2="83.4274" y2="79.9768" gradientUnits="userSpaceOnUse">
<stop stop-color="#17EAD9"/>
<stop offset="1" stop-color="#6078EA"/>
</linearGradient>
</defs>
</svg>
